<svg width="130" height="48" viewBox="0 0 130 48" fill="none" xmlns="http://www.w3.org/2000/svg">
<g id="Layer 2">
<g id="Layer 1">
<path id="Vector" d="M34.6539 30.4276H33.1604L31.8165 34.8903L30.3612 30.4098H29.1383L27.683 34.8903L26.3391 30.4276H24.8074L27.0238 37.057H28.2658L29.7306 32.7446L31.1955 37.057H32.4375L34.6539 30.4276ZM45.1708 37.0182V30.4276H43.7377V37.0182H45.1708ZM60.3689 37.0182L58.7766 34.6639C59.603 34.3535 60.1683 33.6938 60.1683 32.6218V32.6024C60.1683 31.2474 59.2495 30.4276 57.721 30.4276H54.761V37.0182H56.194V34.9162H57.3165L58.7066 37.0182H60.3689ZM58.7289 32.6978C58.7289 33.2524 58.3292 33.6291 57.635 33.6291H56.1876V31.7373H57.6063C58.3021 31.7373 58.7209 32.0607 58.7209 32.6784V32.6978H58.7289ZM74.3712 37.0182V35.7246H70.8555V34.3438H73.9142V33.0502H70.8555V31.7131H74.3314V30.4195H69.4304V37.0101L74.3712 37.0182ZM88.2732 37.0182V35.7004H85.0378V30.4276H83.6047V37.0182H88.2732ZM102.256 37.0182V35.7246H98.7344V34.3438H101.793V33.0502H98.7344V31.7131H102.21V30.4195H97.3157V37.0101L102.256 37.0182ZM116.186 35.0698V35.0504C116.186 33.9024 115.444 33.4221 114.128 33.0729C113.014 32.7818 112.727 32.6412 112.727 32.2078V32.1884C112.727 31.865 113.015 31.6144 113.561 31.6144C114.108 31.6144 114.676 31.8586 115.249 32.2612L115.991 31.1681C115.308 30.6124 114.456 30.3162 113.581 30.3306C112.254 30.3306 111.31 31.1213 111.31 32.3178V32.3388C111.31 33.6485 112.152 34.0155 113.46 34.3535C114.546 34.6364 114.767 34.824 114.767 35.1911V35.2105C114.767 35.5969 114.415 35.8314 113.831 35.8314C113.089 35.8314 112.477 35.5209 111.893 35.031L111.05 36.0577C111.809 36.7408 112.789 37.1161 113.804 37.112C115.203 37.112 116.192 36.3779 116.192 35.0698H116.186ZM129.994 35.0698V35.0504C129.994 33.9024 129.252 33.4221 127.936 33.0729C126.822 32.7818 126.535 32.6412 126.535 32.2078V32.1884C126.535 31.865 126.823 31.6144 127.37 31.6144C127.916 31.6144 128.484 31.8586 129.057 32.2612L129.799 31.1681C129.116 30.6124 128.264 30.3162 127.389 30.3306C126.064 30.3306 125.118 31.1213 125.118 32.3178V32.3388C125.118 33.6485 125.96 34.0155 127.268 34.3535C128.354 34.6364 128.575 34.824 128.575 35.1911V35.2105C128.575 35.5969 128.223 35.8314 127.639 35.8314C126.897 35.8314 126.285 35.5209 125.701 35.031L124.859 36.0577C125.617 36.7408 126.598 37.1161 127.612 37.112C129.011 37.112 130 36.3779 130 35.0698H129.994Z" fill="#145593"/>
<path id="Vector_2" d="M42.9417 5.84841C44.8619 5.84841 46.1533 4.57104 46.1533 2.82315C46.1533 1.20623 44.8619 0 42.9417 0C41.0214 0 39.7317 1.27737 39.7317 2.9234C39.7317 4.56943 41.023 5.84841 42.9417 5.84841ZM40.3606 26.4513H45.5243V8.3692H40.3606V26.4513ZM55.2514 10.7558V8.3692H50.3154V26.4513H55.4791V17.9139C55.4791 14.4521 57.3644 12.8723 60.2113 12.8723C60.6078 12.8723 60.939 12.9063 61.3705 12.9402V8.10079C58.6223 8.10079 56.5045 9.00788 55.2467 10.7558H55.2514Z" fill="#145593"/>
<path id="Vector_3" d="M66.8653 43.2802L52.3328 43.644L51.3503 46.548L50.8599 47.9999L50.6402 46.4833L49.8409 40.9453L48.9699 44.889L48.583 46.5722L47.1404 41.3738L46.0258 43.6132L24.8074 43.2802L45.744 42.9665L47.341 39.8312L48.4556 43.8121L49.5574 38.8223L49.9905 36.8545L50.2787 38.8482L51.1481 44.8631L51.7229 43.1653L51.8073 42.9163H52.07L66.8653 43.2802Z" fill="#F8981D"/>
<path id="Vector_4" fill-rule="evenodd" clip-rule="evenodd" d="M22.013 9.22818C20.5306 12.0723 18.9431 14.8874 17.2872 17.6604C19.0127 17.5904 20.741 17.6791 22.4509 17.9256C23.0878 18.0194 23.7194 18.1353 24.3456 18.2733C24.5781 18.325 24.8106 18.3784 25.0415 18.4349L24.9889 18.422C23.7008 15.8349 22.7247 12.9827 22.0194 9.22656L22.013 9.22818ZM16.3589 19.2046C14.8733 21.651 13.3415 24.0764 11.7891 26.4808C10.8576 27.9231 9.9755 29.3168 9.009 30.7397C6.48368 34.4587 4.27044 37.5163 1.53653 41.0169L0 43.0106C5.78308 40.0661 15.5739 30.7543 18.6565 27.4477C19.838 26.18 21.7184 23.7385 23.3712 21.4909L23.317 21.4651C21.0857 20.4554 18.7525 19.6964 16.3589 19.2014V19.2046Z" fill="#2491EB"/>
<path id="Vector_5" fill-rule="evenodd" clip-rule="evenodd" d="M30.1097 26.4514H38.9005C34.3451 22.0857 29.4823 19.4064 24.3393 18.273C23.712 18.1339 23.0804 18.018 22.4445 17.9253C20.634 17.6649 18.8031 17.5804 16.9767 17.6731C15.1637 17.7673 13.3612 18.0106 11.5869 18.4007C13.2046 18.6044 14.7279 18.8578 16.1567 19.1607C18.8635 19.7363 21.236 20.4962 23.3219 21.4648C26.0749 22.7454 28.3136 24.3914 30.1144 26.4514H30.1097Z" fill="#F8981D"/>
<path id="Vector_6" fill-rule="evenodd" clip-rule="evenodd" d="M24.9824 18.423C29.8881 19.6341 34.5359 22.2632 38.9003 26.4511C35.1076 22.1711 26.4982 9.43456 26.1511 0.463867C24.906 3.42607 23.5143 6.34462 22.0112 9.22759C22.7166 12.9837 23.6927 15.8327 24.9808 18.423H24.9824Z" fill="#145593"/>
<path id="Vector_7" fill-rule="evenodd" clip-rule="evenodd" d="M22.0129 9.22754C21.8171 12.0313 22.1021 14.9563 22.7342 17.9702C23.2724 18.0543 23.8074 18.1551 24.3392 18.2726C24.5542 18.3195 24.7675 18.3696 24.9761 18.423C23.688 15.8359 22.7119 12.9837 22.0065 9.22754H22.0129Z" fill="#1A76C1"/>
<path id="Vector_8" d="M70.0274 26.1946H75.3042V7.39785H82.6015V3.03216H62.7349V7.39785H70.0274V26.1946ZM90.1567 8.12547C87.356 8.12547 84.5217 8.88704 82.5999 10.276L84.423 13.8817C85.6968 12.8566 87.6075 12.2276 89.4737 12.2276C92.2092 12.2276 93.5116 13.5211 93.5116 15.7347H89.4737C84.13 15.7347 81.9487 17.9176 81.9487 21.0592C81.9487 24.1314 84.3912 26.4517 88.496 26.4517C91.0691 26.4517 92.8939 25.5915 93.8381 23.9713V26.1946H98.5941V16.0322C98.5941 10.6398 95.4988 8.12547 90.1552 8.12547H90.1567ZM89.7667 22.9785C87.9738 22.9785 86.9006 22.1183 86.9006 20.828C86.9006 19.638 87.6505 18.7438 90.0278 18.7438H93.5132V20.5645C92.9273 22.1814 91.4624 22.9785 89.7682 22.9785H89.7667ZM102.078 26.1946H107.159V1.6416H102.078V26.1946ZM123.836 26.1946H129.993L122.045 15.932L129.342 8.39064H123.284L115.856 15.5358V1.6416H110.773V26.1946H115.856V21.6672L118.305 19.2079L123.836 26.1946Z" fill="#2491EB"/>
<path id="Vector_9" d="M69.7666 42.5089C69.9286 42.2262 70.163 41.9932 70.4449 41.8347C70.7494 41.6687 71.0912 41.5858 71.4368 41.5943C71.7823 41.6028 72.1198 41.7024 72.4161 41.8832C72.7187 42.0767 72.9504 42.3659 73.0753 42.7062H72.3572C72.2736 42.5224 72.1355 42.3697 71.9623 42.2696C71.7841 42.1713 71.5838 42.1217 71.3811 42.1257C71.1553 42.1205 70.9322 42.1763 70.7346 42.2874C70.5453 42.3988 70.3916 42.5633 70.292 42.7612C70.1862 42.9858 70.1312 43.2317 70.1312 43.4807C70.1312 43.7297 70.1862 43.9756 70.292 44.2002C70.3915 44.399 70.5452 44.5645 70.7346 44.6772C70.932 44.7888 71.1553 44.8446 71.3811 44.8389C71.5838 44.843 71.7841 44.7934 71.9623 44.695C72.1355 44.5949 72.2736 44.4422 72.3572 44.2584H73.0753C72.9511 44.5984 72.7192 44.8867 72.4161 45.0782C72.1052 45.2726 71.7461 45.3725 71.3811 45.366C71.0525 45.3699 70.7286 45.2862 70.4417 45.1235C70.1611 44.9644 69.9279 44.7315 69.7666 44.4492C69.6036 44.1509 69.5181 43.8154 69.5181 43.4742C69.5181 43.1331 69.6036 42.7975 69.7666 42.4992V42.5089Z" fill="#F8981D"/>
<path id="Vector_10" d="M74.287 45.2029C74.0685 45.0781 73.8888 44.8939 73.7679 44.6709C73.6383 44.4262 73.5731 44.1516 73.5784 43.8738C73.5734 43.5964 73.6404 43.3226 73.7727 43.0799C73.8963 42.8548 74.0801 42.6698 74.3029 42.5463C74.5349 42.4241 74.7923 42.3604 75.0537 42.3604C75.315 42.3604 75.5724 42.4241 75.8044 42.5463C76.0267 42.6699 76.21 42.8549 76.333 43.0799C76.466 43.3223 76.5331 43.5964 76.5273 43.8738C76.533 44.1519 76.4642 44.4263 76.3283 44.6677C76.2003 44.8943 76.0121 45.0798 75.7853 45.2029C75.5524 45.3299 75.2917 45.395 75.0274 45.3921C74.7686 45.3958 74.5133 45.3305 74.287 45.2029ZM75.4605 44.7534C75.5997 44.6749 75.7144 44.5584 75.7917 44.4171C75.8794 44.2502 75.9227 44.0629 75.9175 43.8738C75.9209 43.6859 75.8777 43.5002 75.7917 43.3338C75.7181 43.1948 75.6078 43.0795 75.4732 43.0007C75.3416 42.9268 75.1936 42.8884 75.0433 42.8891C74.8934 42.888 74.7458 42.9265 74.615 43.0007C74.4791 43.0777 74.3683 43.1935 74.2965 43.3338C74.2157 43.5022 74.1763 43.6881 74.1819 43.8754C74.1653 44.1415 74.2502 44.4038 74.4191 44.6079C74.4957 44.6918 74.589 44.7583 74.6927 44.8029C74.7965 44.8475 74.9084 44.8692 75.021 44.8666C75.1746 44.8679 75.326 44.8289 75.4605 44.7534Z" fill="#F8981D"/>
<path id="Vector_11" d="M79.191 42.5043C79.371 42.6 79.5181 42.7488 79.613 42.9312C79.7224 43.1412 79.7772 43.376 79.7722 43.6135V45.3436H79.1783V43.7041C79.1926 43.4841 79.123 43.267 78.984 43.0977C78.9153 43.0266 78.8325 42.9711 78.7411 42.9349C78.6497 42.8987 78.5518 42.8825 78.4538 42.8875C78.3556 42.8828 78.2575 42.8991 78.1659 42.9353C78.0743 42.9715 77.9912 43.0268 77.922 43.0977C77.7805 43.2658 77.7096 43.4835 77.7245 43.7041V45.3436H77.1274V42.4089H77.7245V42.7436C77.8259 42.6208 77.9548 42.5243 78.1003 42.4623C78.2534 42.3942 78.4188 42.3595 78.5859 42.3604C78.7961 42.3582 79.0037 42.4076 79.191 42.5043Z" fill="#F8981D"/>
<path id="Vector_12" d="M82.5954 42.5044C82.7758 42.6 82.9235 42.7488 83.019 42.9313C83.1277 43.1415 83.1824 43.3762 83.1782 43.6136V45.3437H82.5859V43.7042C82.6002 43.4842 82.5306 43.2671 82.3916 43.0978C82.2468 42.9627 82.0573 42.8877 81.8606 42.8877C81.6639 42.8877 81.4744 42.9627 81.3296 43.0978C81.1881 43.2659 81.1172 43.4836 81.1321 43.7042V45.3437H80.5334V42.409H81.1321V42.7437C81.2332 42.6205 81.3621 42.5239 81.5079 42.4624C81.6585 42.3952 81.8211 42.3605 81.9856 42.3605C82.1974 42.3573 82.4067 42.4067 82.5954 42.5044Z" fill="#F8981D"/>
<path id="Vector_13" d="M86.5599 44.1037H84.3515C84.3554 44.2102 84.3801 44.315 84.4241 44.4118C84.4681 44.5087 84.5305 44.5957 84.6078 44.668C84.7626 44.8107 84.9657 44.8872 85.1747 44.8814C85.3158 44.891 85.4566 44.8569 85.5783 44.7836C85.6999 44.7103 85.7968 44.6012 85.8561 44.4707H86.5026C86.4165 44.7375 86.2493 44.9696 86.0249 45.1336C85.776 45.3125 85.4762 45.4034 85.1715 45.3923C84.912 45.3968 84.6561 45.3316 84.4295 45.2032C84.2121 45.0786 84.0338 44.8942 83.9152 44.6712C83.7872 44.4259 83.7231 44.1515 83.7289 43.8741C83.7233 43.5973 83.7851 43.3235 83.9088 43.0769C84.0248 42.854 84.2017 42.6698 84.4183 42.5466C84.6495 42.4199 84.9089 42.3559 85.1715 42.3606C85.4259 42.3558 85.6772 42.4182 85.9007 42.5417C86.1109 42.6603 86.2836 42.8369 86.3991 43.051C86.5215 43.2824 86.583 43.5419 86.5774 43.8045C86.5795 43.9045 86.5736 44.0046 86.5599 44.1037ZM85.9565 43.6186C85.9586 43.5168 85.9386 43.4157 85.8979 43.3226C85.8571 43.2295 85.7967 43.1467 85.7208 43.0801C85.5617 42.9427 85.358 42.8701 85.1492 42.8764C84.9538 42.8726 84.7643 42.9442 84.619 43.0769C84.4677 43.2177 84.374 43.411 84.3562 43.6186H85.9565Z" fill="#F8981D"/>
<path id="Vector_14" d="M87.1507 43.0765C87.2639 42.8548 87.4374 42.6707 87.6506 42.5462C87.8758 42.4209 88.1295 42.3579 88.3862 42.3635C88.6949 42.3509 88.9993 42.44 89.254 42.6173C89.4885 42.7939 89.6534 43.0496 89.719 43.3385H89.0725C89.0261 43.2007 88.9381 43.0813 88.8209 42.9973C88.6919 42.9119 88.5401 42.869 88.3862 42.8744C88.2753 42.8701 88.1648 42.8917 88.0632 42.9373C87.9617 42.983 87.8717 43.0516 87.8003 43.138C87.6579 43.3576 87.582 43.6148 87.582 43.8777C87.582 44.1407 87.6579 44.3978 87.8003 44.6175C87.871 44.7049 87.9608 44.7744 88.0624 44.8207C88.1641 44.867 88.2749 44.8888 88.3862 44.8843C88.5354 44.8968 88.6843 44.8577 88.8089 44.7735C88.9335 44.6893 89.0264 44.5648 89.0725 44.4202H89.719C89.6429 44.7051 89.4747 44.9557 89.2413 45.1316C88.9913 45.3137 88.6889 45.4064 88.3815 45.3952C88.124 45.4004 87.8699 45.3351 87.6458 45.206C87.4329 45.0804 87.2595 44.8959 87.1459 44.6741C87.0264 44.4258 86.9644 44.1532 86.9644 43.8769C86.9644 43.6006 87.0264 43.328 87.1459 43.0798L87.1507 43.0765Z" fill="#F8981D"/>
<path id="Vector_15" d="M91.0149 42.9034V44.5284C91.0107 44.5711 91.0152 44.6142 91.0281 44.6551C91.0409 44.696 91.0619 44.7337 91.0898 44.7661C91.1647 44.8213 91.2571 44.8466 91.3493 44.8372H91.7139V45.3433H91.2363C91.0137 45.359 90.7933 45.2911 90.6169 45.1525C90.5386 45.0705 90.4787 44.9722 90.4413 44.8645C90.404 44.7568 90.39 44.6421 90.4003 44.5284V42.9034H90.0596V42.4086H90.4003V41.6777H91.0054V42.4086H91.7139V42.9034H91.0149Z" fill="#F8981D"/>
<path id="Vector_16" d="M92.3001 41.9074C92.2461 41.8529 92.2092 41.7833 92.1942 41.7075C92.1793 41.6317 92.1869 41.553 92.2161 41.4816C92.2453 41.4101 92.2948 41.3491 92.3582 41.3063C92.4217 41.2635 92.4962 41.2409 92.5724 41.2413C92.6221 41.2404 92.6715 41.2498 92.7175 41.269C92.7635 41.2882 92.8051 41.3167 92.8399 41.3528C92.9102 41.4275 92.9495 41.5268 92.9495 41.6301C92.9495 41.7335 92.9102 41.8328 92.8399 41.9074C92.8051 41.9436 92.7635 41.9721 92.7175 41.9913C92.6715 42.0105 92.6221 42.0199 92.5724 42.019C92.5219 42.0203 92.4717 42.0111 92.4249 41.9919C92.378 41.9727 92.3356 41.944 92.3001 41.9074ZM92.8669 42.4087V45.3434H92.2683V42.4087H92.8669Z" fill="#F8981D"/>
<path id="Vector_17" d="M95.7235 42.5043C95.9034 42.6 96.0506 42.7488 96.1454 42.9312C96.2548 43.1412 96.3096 43.376 96.3047 43.6136V45.3437H95.7107V43.7041C95.7256 43.4843 95.6567 43.2672 95.5181 43.0978C95.4492 43.0269 95.3663 42.9716 95.275 42.9354C95.1836 42.8991 95.0858 42.8829 94.9879 42.8875C94.8894 42.8829 94.7911 42.8992 94.6993 42.9354C94.6074 42.9716 94.524 43.0269 94.4545 43.0978C94.3142 43.2664 94.2439 43.4838 94.2586 43.7041V45.3437H93.6599V42.4089H94.2586V42.7436C94.3594 42.6208 94.4877 42.5243 94.6328 42.4623C94.7859 42.3942 94.9513 42.3595 95.1184 42.3604C95.3286 42.3581 95.5362 42.4074 95.7235 42.5043Z" fill="#F8981D"/>
<path id="Vector_18" d="M98.8187 42.4963C98.9783 42.5756 99.1178 42.6913 99.2263 42.8342V42.4089H99.8345V45.3922C99.8384 45.6436 99.7804 45.892 99.6658 46.1149C99.5566 46.3238 99.3909 46.4967 99.1881 46.6129C98.955 46.7385 98.6939 46.8009 98.4302 46.794C98.084 46.8071 97.7425 46.7092 97.4541 46.5143C97.3301 46.4283 97.2264 46.3156 97.1501 46.1843C97.0739 46.0529 97.0271 45.9062 97.0131 45.7544H97.607C97.6545 45.9108 97.7586 46.0431 97.8984 46.1246C98.0588 46.2222 98.2432 46.2715 98.4302 46.2669C98.5377 46.2716 98.6451 46.2542 98.7458 46.2155C98.8465 46.1769 98.9385 46.1179 99.0161 46.0422C99.0942 45.9552 99.1542 45.853 99.1925 45.7419C99.2308 45.6307 99.2467 45.5129 99.239 45.3954V44.9103C99.129 45.0566 98.9881 45.1759 98.8266 45.2596C98.6443 45.3556 98.4413 45.404 98.2359 45.4003C97.9927 45.4025 97.7538 45.3353 97.5465 45.2062C97.336 45.0745 97.1652 44.8866 97.0529 44.6629C96.9295 44.4179 96.8677 44.1458 96.8729 43.8706C96.8671 43.5986 96.929 43.3294 97.0529 43.0881C97.1656 42.869 97.3357 42.6859 97.5445 42.5589C97.7533 42.432 97.9926 42.3661 98.2359 42.3685C98.4374 42.3637 98.6371 42.4075 98.8187 42.4963ZM99.1021 43.3468C99.0298 43.2077 98.9213 43.0915 98.7886 43.0105C98.6558 42.9296 98.5038 42.887 98.349 42.8876C98.195 42.8864 98.0436 42.9278 97.9109 43.0073C97.7783 43.0867 97.6694 43.2013 97.5958 43.3387C97.5111 43.4996 97.4688 43.6801 97.4732 43.8626C97.4694 44.048 97.5115 44.2315 97.5958 44.3961C97.6691 44.5396 97.7791 44.6602 97.9143 44.7454C98.0443 44.8232 98.1925 44.8642 98.3434 44.8642C98.4943 44.8642 98.6425 44.8232 98.7725 44.7454C98.9077 44.6631 99.0179 44.5445 99.091 44.4026C99.1765 44.2396 99.2192 44.0569 99.2151 43.8723C99.2228 43.6901 99.1838 43.5091 99.1021 43.3468Z" fill="#F8981D"/>
<path id="Vector_19" d="M104.178 44.5866H102.651L102.39 45.3433H101.766L103.072 41.6357H103.764L105.072 45.3433H104.435L104.178 44.5866ZM104.019 44.0919L103.425 42.3714L102.828 44.0919H104.019Z" fill="#F8981D"/>
<path id="Vector_20" d="M109.748 42.5043C109.929 42.6003 110.077 42.749 110.173 42.9311C110.283 43.1408 110.338 43.3759 110.332 43.6135V45.3436H109.74V43.704C109.754 43.4841 109.685 43.267 109.546 43.0977C109.477 43.0266 109.394 42.9711 109.303 42.9349C109.212 42.8986 109.114 42.8825 109.016 42.8875C108.917 42.8828 108.819 42.899 108.728 42.9353C108.636 42.9715 108.553 43.0268 108.484 43.0977C108.342 43.2657 108.271 43.4835 108.286 43.704V45.3436H107.694V43.704C107.708 43.4841 107.639 43.267 107.5 43.0977C107.355 42.9626 107.165 42.8876 106.969 42.8876C106.772 42.8876 106.583 42.9626 106.438 43.0977C106.296 43.2657 106.225 43.4835 106.24 43.704V45.3436H105.642V42.4089H106.24V42.7436C106.341 42.6215 106.469 42.5251 106.613 42.4622C106.763 42.3947 106.926 42.36 107.091 42.3604C107.306 42.3568 107.519 42.408 107.71 42.5091C107.889 42.6072 108.036 42.7576 108.13 42.9408C108.22 42.7601 108.363 42.6121 108.54 42.5172C108.721 42.4113 108.927 42.3556 109.137 42.3555C109.349 42.3536 109.559 42.4047 109.748 42.5043Z" fill="#F8981D"/>
<path id="Vector_21" d="M113.718 44.1037H111.509C111.518 44.3187 111.61 44.5214 111.766 44.668C111.92 44.8104 112.123 44.8868 112.332 44.8814C112.474 44.8909 112.615 44.8568 112.737 44.7835C112.858 44.7102 112.956 44.6012 113.015 44.4707H113.66C113.575 44.7378 113.407 44.9701 113.183 45.1337C112.934 45.3125 112.634 45.4034 112.329 45.3924C112.07 45.3966 111.814 45.3314 111.587 45.2032C111.37 45.0782 111.192 44.8939 111.073 44.6712C110.945 44.426 110.881 44.1516 110.887 43.8741C110.881 43.5971 110.943 43.3231 111.068 43.0769C111.183 42.854 111.36 42.6698 111.576 42.5466C111.807 42.4201 112.067 42.3561 112.329 42.3606C112.584 42.3556 112.835 42.4181 113.058 42.5417C113.269 42.6597 113.442 42.8364 113.557 43.0511C113.679 43.2824 113.741 43.542 113.735 43.8045C113.737 43.9046 113.731 44.0046 113.718 44.1037ZM113.114 43.6186C113.117 43.5167 113.097 43.4155 113.056 43.3224C113.015 43.2292 112.955 43.1465 112.879 43.0802C112.72 42.9425 112.516 42.8698 112.307 42.8764C112.112 42.8726 111.922 42.9442 111.777 43.0769C111.626 43.2181 111.532 43.4112 111.514 43.6186H113.114Z" fill="#F8981D"/>
<path id="Vector_22" d="M115.28 42.4859C115.438 42.3984 115.617 42.3549 115.797 42.3597V42.9887H115.638C115.542 42.9816 115.445 42.9939 115.354 43.025C115.263 43.0561 115.178 43.1053 115.106 43.1698C114.985 43.2911 114.925 43.4932 114.925 43.7988V45.343H114.324V42.4082H114.923V42.8335C115.009 42.6872 115.132 42.5671 115.28 42.4859Z" fill="#F8981D"/>
<path id="Vector_23" d="M116.373 41.9074C116.319 41.8529 116.282 41.7833 116.267 41.7075C116.253 41.6317 116.26 41.553 116.289 41.4816C116.319 41.4101 116.368 41.3491 116.431 41.3063C116.495 41.2635 116.569 41.2409 116.646 41.2413C116.695 41.2404 116.745 41.2498 116.791 41.269C116.837 41.2882 116.878 41.3167 116.913 41.3528C116.983 41.4275 117.023 41.5268 117.023 41.6301C117.023 41.7335 116.983 41.8328 116.913 41.9074C116.878 41.9436 116.837 41.9721 116.791 41.9913C116.745 42.0105 116.695 42.0199 116.646 42.019C116.595 42.0203 116.545 42.0111 116.498 41.9919C116.451 41.9727 116.409 41.944 116.373 41.9074ZM116.939 42.4087V45.3434H116.342V42.4087H116.939Z" fill="#F8981D"/>
<path id="Vector_24" d="M117.708 43.0766C117.822 42.8551 117.996 42.6712 118.209 42.5462C118.433 42.4214 118.686 42.3584 118.942 42.3635C119.251 42.3506 119.556 42.4397 119.811 42.6174C120.045 42.7942 120.209 43.0498 120.274 43.3385H119.637C119.59 43.2011 119.503 43.0819 119.386 42.9974C119.256 42.9119 119.104 42.869 118.95 42.8745C118.839 42.8702 118.729 42.8917 118.627 42.9374C118.526 42.9831 118.436 43.0517 118.365 43.138C118.223 43.3577 118.147 43.6148 118.147 43.8778C118.147 44.1407 118.223 44.3979 118.365 44.6175C118.436 44.7049 118.525 44.7745 118.627 44.8208C118.728 44.8671 118.839 44.8888 118.95 44.8843C119.099 44.8969 119.248 44.8579 119.373 44.7737C119.498 44.6895 119.591 44.565 119.637 44.4203H120.274C120.199 44.7055 120.031 44.9564 119.797 45.1317C119.546 45.3138 119.243 45.4064 118.935 45.3953C118.678 45.4002 118.425 45.3348 118.201 45.2061C117.988 45.0801 117.814 44.8957 117.7 44.6741C117.581 44.4256 117.52 44.1531 117.52 43.877C117.52 43.6009 117.581 43.3284 117.7 43.0798L117.708 43.0766Z" fill="#F8981D"/>
<path id="Vector_25" d="M120.852 43.0793C120.965 42.8602 121.135 42.6771 121.344 42.5501C121.553 42.4232 121.792 42.3573 122.035 42.3597C122.242 42.3547 122.446 42.4014 122.631 42.4956C122.789 42.5767 122.929 42.692 123.039 42.8335V42.4082H123.642V45.343H123.039V44.9064C122.928 45.0525 122.786 45.1709 122.623 45.2524C122.423 45.3513 122.202 45.3981 121.979 45.3885C121.757 45.3789 121.54 45.3133 121.349 45.1974C121.14 45.0647 120.971 44.8769 120.859 44.6542C120.736 44.4089 120.674 44.1369 120.679 43.8619C120.672 43.5904 120.731 43.3214 120.852 43.0793ZM122.922 43.3461C122.85 43.207 122.742 43.0907 122.609 43.0098C122.476 42.9289 122.324 42.8863 122.169 42.8869C122.015 42.8857 121.864 42.9271 121.731 43.0066C121.598 43.086 121.49 43.2006 121.416 43.338C121.331 43.4989 121.289 43.6794 121.293 43.8619C121.29 44.0473 121.332 44.2308 121.416 44.3954C121.489 44.5388 121.599 44.6595 121.734 44.7447C121.864 44.8225 122.013 44.8635 122.164 44.8635C122.314 44.8635 122.463 44.8225 122.593 44.7447C122.728 44.6624 122.838 44.5438 122.911 44.4019C122.997 44.2389 123.039 44.0562 123.035 43.8716C123.043 43.6894 123.004 43.5084 122.922 43.3461Z" fill="#F8981D"/>
<path id="Vector_26" d="M126.502 42.5044C126.682 42.6001 126.829 42.7489 126.924 42.9313C127.033 43.1413 127.088 43.3762 127.083 43.6137V45.3438H126.489V43.7042C126.504 43.4845 126.435 43.2673 126.296 43.0979C126.227 43.027 126.145 42.9717 126.053 42.9355C125.962 42.8993 125.864 42.883 125.766 42.8877C125.668 42.883 125.569 42.8993 125.478 42.9355C125.386 42.9717 125.302 43.027 125.233 43.0979C125.092 43.2665 125.022 43.4839 125.037 43.7042V45.3438H124.438V42.409H125.037V42.7438C125.138 42.6209 125.266 42.5244 125.411 42.4624C125.562 42.3954 125.724 42.3607 125.889 42.3605C126.102 42.3569 126.312 42.4063 126.502 42.5044Z" fill="#F8981D"/>
<path id="Vector_27" d="M128.276 45.2743C128.107 45.1994 127.959 45.082 127.847 44.9331C127.746 44.792 127.691 44.6226 127.688 44.4481H128.307C128.313 44.5096 128.331 44.5694 128.361 44.623C128.391 44.6766 128.433 44.7229 128.483 44.7585C128.598 44.8454 128.74 44.8899 128.884 44.8846C129.021 44.8931 129.158 44.8587 129.275 44.786C129.318 44.7591 129.353 44.7217 129.377 44.6773C129.401 44.6329 129.414 44.5829 129.414 44.5321C129.415 44.4799 129.4 44.4287 129.371 44.3852C129.343 44.3416 129.302 44.3078 129.255 44.288C129.097 44.2149 128.933 44.1559 128.764 44.1117C128.584 44.0641 128.407 44.0053 128.234 43.9355C128.097 43.8784 127.975 43.7892 127.879 43.6752C127.775 43.5442 127.722 43.3791 127.729 43.2111C127.729 43.0571 127.777 42.9069 127.866 42.7826C127.966 42.6453 128.102 42.539 128.258 42.4754C128.443 42.3979 128.642 42.3599 128.842 42.3638C129.129 42.3492 129.411 42.4393 129.639 42.6177C129.738 42.7021 129.818 42.8075 129.873 42.9264C129.928 43.0454 129.956 43.1751 129.957 43.3065H129.358C129.355 43.2457 129.34 43.1862 129.312 43.132C129.285 43.0779 129.246 43.0304 129.199 42.9928C129.089 42.9095 128.954 42.8677 128.817 42.8748C128.69 42.8674 128.563 42.899 128.454 42.9653C128.415 42.9916 128.383 43.0274 128.361 43.0695C128.339 43.1116 128.328 43.1586 128.328 43.2063C128.328 43.2433 128.335 43.2801 128.349 43.3141C128.364 43.3481 128.385 43.3786 128.412 43.4035C128.472 43.4592 128.542 43.5016 128.618 43.528C128.697 43.5588 128.817 43.5959 128.975 43.6428C129.15 43.6883 129.323 43.7461 129.49 43.8158C129.625 43.8739 129.744 43.9624 129.839 44.0745C129.945 44.2005 130.002 44.3617 129.998 44.5273C130 44.6874 129.952 44.8441 129.861 44.9752C129.763 45.1121 129.63 45.219 129.476 45.284C129.291 45.3623 129.092 45.4003 128.892 45.3956C128.68 45.4006 128.47 45.3593 128.276 45.2743Z" fill="#F8981D"/>
</g>
</g>
</svg>
