<svg width="24" height="24" viewBox="0 0 24 24" fill="none" xmlns="http://www.w3.org/2000/svg">
<path fill-rule="evenodd" clip-rule="evenodd" d="M11.9999 21.6C17.3018 21.6 21.5999 17.302 21.5999 12C21.5999 6.69809 17.3018 2.40002 11.9999 2.40002C6.69797 2.40002 2.3999 6.69809 2.3999 12C2.3999 17.302 6.69797 21.6 11.9999 21.6ZM13.1999 8.40002C13.1999 7.73728 12.6626 7.20002 11.9999 7.20002C11.3372 7.20002 10.7999 7.73728 10.7999 8.40002V12.703L9.24843 11.1515C8.7798 10.6829 8.02 10.6829 7.55137 11.1515C7.08275 11.6201 7.08275 12.3799 7.55137 12.8486L11.1514 16.4486C11.62 16.9172 12.3798 16.9172 12.8484 16.4486L16.4484 12.8486C16.9171 12.3799 16.9171 11.6201 16.4484 11.1515C15.9798 10.6829 15.22 10.6829 14.7514 11.1515L13.1999 12.703V8.40002Z" fill="#111827"/>
</svg>
