<svg width="24" height="24" viewBox="0 0 24 24" fill="none" xmlns="http://www.w3.org/2000/svg">
<path fill-rule="evenodd" clip-rule="evenodd" d="M11.9999 21.6C17.3018 21.6 21.5999 17.302 21.5999 12C21.5999 6.69809 17.3018 2.40002 11.9999 2.40002C6.69797 2.40002 2.3999 6.69809 2.3999 12C2.3999 17.302 6.69797 21.6 11.9999 21.6ZM16.4484 11.1515L12.8484 7.5515C12.3798 7.08287 11.62 7.08287 11.1514 7.5515C10.6827 8.02013 10.6827 8.77992 11.1514 9.24855L12.7028 10.8L8.3999 10.8C7.73716 10.8 7.1999 11.3373 7.1999 12C7.1999 12.6628 7.73716 13.2 8.3999 13.2H12.7028L11.1514 14.7515C10.6827 15.2201 10.6827 15.9799 11.1514 16.4486C11.62 16.9172 12.3798 16.9172 12.8484 16.4486L16.4484 12.8486C16.9171 12.3799 16.9171 11.6201 16.4484 11.1515Z" fill="#111827"/>
</svg>
