<svg width="24" height="24" viewBox="0 0 24 24" fill="none" xmlns="http://www.w3.org/2000/svg">
<path fill-rule="evenodd" clip-rule="evenodd" d="M11.9999 21.6C17.3018 21.6 21.5999 17.302 21.5999 12C21.5999 6.69809 17.3018 2.40002 11.9999 2.40002C6.69797 2.40002 2.3999 6.69809 2.3999 12C2.3999 17.302 6.69797 21.6 11.9999 21.6ZM12.8484 9.24855C13.3171 8.77992 13.3171 8.02013 12.8484 7.5515C12.3798 7.08287 11.62 7.08287 11.1514 7.5515L7.55137 11.1515C7.08275 11.6201 7.08275 12.3799 7.55137 12.8486L11.1514 16.4486C11.62 16.9172 12.3798 16.9172 12.8484 16.4486C13.3171 15.9799 13.3171 15.2201 12.8484 14.7515L11.297 13.2H15.5999C16.2626 13.2 16.7999 12.6628 16.7999 12C16.7999 11.3373 16.2626 10.8 15.5999 10.8H11.297L12.8484 9.24855Z" fill="#111827"/>
</svg>
