<svg width="24" height="24" viewBox="0 0 24 24" fill="none" xmlns="http://www.w3.org/2000/svg">
<path d="M18.8486 5.15152C19.3172 5.62015 19.3172 6.37995 18.8486 6.84858L12.8486 12.8486C12.3799 13.3172 11.6201 13.3172 11.1515 12.8486L5.15152 6.84858C4.68289 6.37995 4.68289 5.62015 5.15152 5.15152C5.62015 4.68289 6.37995 4.68289 6.84858 5.15152L12 10.303L17.1515 5.15152C17.6201 4.68289 18.3799 4.68289 18.8486 5.15152Z" fill="#111827"/>
<path d="M18.8486 12.3515C19.3172 12.8201 19.3172 13.5799 18.8486 14.0486L12.8486 20.0486C12.3799 20.5172 11.6201 20.5172 11.1515 20.0486L5.15152 14.0486C4.68289 13.5799 4.68289 12.8201 5.15152 12.3515C5.62015 11.8829 6.37995 11.8829 6.84858 12.3515L12 17.503L17.1515 12.3515C17.6201 11.8829 18.3799 11.8829 18.8486 12.3515Z" fill="#111827"/>
</svg>
