<svg width="24" height="24" viewBox="0 0 24 24" fill="none" xmlns="http://www.w3.org/2000/svg">
<path d="M5.15152 18.8485C4.68289 18.3799 4.68289 17.6201 5.15152 17.1514L11.1515 11.1514C11.6202 10.6828 12.3799 10.6828 12.8486 11.1514L18.8486 17.1514C19.3172 17.6201 19.3172 18.3799 18.8486 18.8485C18.3799 19.3171 17.6202 19.3171 17.1515 18.8485L12 13.697L6.84858 18.8485C6.37995 19.3171 5.62015 19.3171 5.15152 18.8485Z" fill="#111827"/>
<path d="M5.15152 11.6485C4.68289 11.1799 4.68289 10.4201 5.15152 9.95145L11.1515 3.95145C11.6202 3.48282 12.3799 3.48282 12.8486 3.95145L18.8486 9.95145C19.3172 10.4201 19.3172 11.1799 18.8486 11.6485C18.3799 12.1171 17.6202 12.1171 17.1515 11.6485L12 6.49703L6.84858 11.6485C6.37995 12.1171 5.62015 12.1171 5.15152 11.6485Z" fill="#111827"/>
</svg>
