<svg width="24" height="24" viewBox="0 0 24 24" fill="none" xmlns="http://www.w3.org/2000/svg">
<path d="M18.8486 18.8486C18.38 19.3172 17.6202 19.3172 17.1516 18.8486L11.1516 12.8486C10.6829 12.3799 10.6829 11.6201 11.1516 11.1515L17.1516 5.15152C17.6202 4.68289 18.38 4.68289 18.8486 5.15152C19.3173 5.62015 19.3173 6.37995 18.8486 6.84858L13.6972 12L18.8486 17.1515C19.3173 17.6202 19.3173 18.3799 18.8486 18.8486Z" fill="#111827"/>
<path d="M11.6486 18.8486C11.18 19.3172 10.4202 19.3172 9.95157 18.8486L3.95157 12.8486C3.48294 12.3799 3.48294 11.6201 3.95157 11.1515L9.95157 5.15152C10.4202 4.68289 11.18 4.68289 11.6486 5.15152C12.1173 5.62015 12.1173 6.37995 11.6486 6.84858L6.49715 12L11.6486 17.1515C12.1173 17.6201 12.1173 18.3799 11.6486 18.8486Z" fill="#111827"/>
</svg>
