<svg width="24" height="24" viewBox="0 0 24 24" fill="none" xmlns="http://www.w3.org/2000/svg">
<path d="M3.60003 3.59998C4.26277 3.59998 4.80002 4.13723 4.80002 4.79998L4.80002 19.2C4.80002 19.8627 4.26277 20.4 3.60003 20.4C2.93728 20.4 2.40002 19.8627 2.40002 19.2L2.40003 4.79998C2.40003 4.13723 2.93728 3.59998 3.60003 3.59998Z" fill="#111827"/>
<path d="M12.8486 7.55145C13.3172 8.02008 13.3172 8.77987 12.8486 9.2485L11.2971 10.8H20.4C21.0628 10.8 21.6 11.3372 21.6 12C21.6 12.6627 21.0628 13.2 20.4 13.2H11.2971L12.8486 14.7514C13.3172 15.2201 13.3172 15.9799 12.8486 16.4485C12.3799 16.9171 11.6201 16.9171 11.1515 16.4485L7.5515 12.8485C7.32645 12.6235 7.20003 12.3182 7.20003 12C7.20003 11.6817 7.32645 11.3765 7.5515 11.1514L11.1515 7.55145C11.6201 7.08282 12.3799 7.08282 12.8486 7.55145Z" fill="#111827"/>
</svg>
