<svg width="24" height="24" viewBox="0 0 24 24" fill="none" xmlns="http://www.w3.org/2000/svg">
<path d="M9.59998 6.00002C8.93723 6.00002 8.39998 6.53728 8.39998 7.20002C8.39998 7.86276 8.93723 8.40002 9.59998 8.40002L16.3029 8.40002L14.7514 9.9515C14.2828 10.4201 14.2828 11.1799 14.7514 11.6486C15.2201 12.1172 15.9799 12.1172 16.4485 11.6486L20.0485 8.04855C20.2735 7.82351 20.4 7.51828 20.4 7.20002C20.4 6.88176 20.2735 6.57654 20.0485 6.3515L16.4485 2.7515C15.9799 2.28287 15.2201 2.28287 14.7514 2.7515C14.2828 3.22012 14.2828 3.97992 14.7514 4.44855L16.3029 6.00002L9.59998 6.00002Z" fill="#111827"/>
</svg>
