<svg width="24" height="24" viewBox="0 0 24 24" fill="none" xmlns="http://www.w3.org/2000/svg">
<path d="M6.00002 14.4C6.00002 15.0627 6.53728 15.6 7.20002 15.6C7.86276 15.6 8.40002 15.0627 8.40002 14.4L8.40002 7.69703L9.9515 9.2485C10.4201 9.71713 11.1799 9.71713 11.6486 9.2485C12.1172 8.77988 12.1172 8.02008 11.6486 7.55145L8.04855 3.95145C7.82351 3.7264 7.51829 3.59998 7.20003 3.59998C6.88177 3.59998 6.57654 3.7264 6.3515 3.95145L2.7515 7.55145C2.28287 8.02008 2.28287 8.77987 2.7515 9.2485C3.22012 9.71713 3.97992 9.71713 4.44855 9.2485L6.00002 7.69703L6.00002 14.4Z" fill="#111827"/>
</svg>
