<svg width="25" height="24" viewBox="0 0 25 24" fill="none" xmlns="http://www.w3.org/2000/svg">
<path fill-rule="evenodd" clip-rule="evenodd" d="M6.52805 3.59998C5.20257 3.59998 4.12805 4.67449 4.12805 5.99998V18C4.12805 19.3255 5.20257 20.4 6.52805 20.4H18.5281C19.8535 20.4 20.9281 19.3255 20.9281 18V5.99998C20.9281 4.67449 19.8535 3.59998 18.5281 3.59998H6.52805ZM17.3281 8.39998C17.3281 7.73723 16.7908 7.19998 16.1281 7.19998C15.4653 7.19998 14.9281 7.73723 14.9281 8.39998V15.6C14.9281 16.2627 15.4653 16.8 16.1281 16.8C16.7908 16.8 17.3281 16.2627 17.3281 15.6V8.39998ZM13.7281 10.8C13.7281 10.1372 13.1908 9.59998 12.5281 9.59998C11.8653 9.59998 11.3281 10.1372 11.3281 10.8V15.6C11.3281 16.2627 11.8653 16.8 12.5281 16.8C13.1908 16.8 13.7281 16.2627 13.7281 15.6V10.8ZM10.1281 14.4C10.1281 13.7372 9.59079 13.2 8.92805 13.2C8.26531 13.2 7.72805 13.7372 7.72805 14.4V15.6C7.72805 16.2627 8.26531 16.8 8.92805 16.8C9.59079 16.8 10.1281 16.2627 10.1281 15.6V14.4Z" fill="#111827"/>
</svg>
