<svg width="25" height="24" viewBox="0 0 25 24" fill="none" xmlns="http://www.w3.org/2000/svg">
<path fill-rule="evenodd" clip-rule="evenodd" d="M7.72813 2.40002C6.40264 2.40002 5.32812 3.47454 5.32812 4.80002V19.2C5.32812 20.5255 6.40264 21.6 7.72812 21.6H17.3281C18.6536 21.6 19.7281 20.5255 19.7281 19.2V8.89708C19.7281 8.26056 19.4753 7.65011 19.0252 7.20002L14.9281 3.10297C14.478 2.65288 13.8676 2.40002 13.2311 2.40002H7.72813ZM10.1281 14.4C10.1281 13.7373 9.59087 13.2 8.92813 13.2C8.26538 13.2 7.72813 13.7373 7.72813 14.4V18C7.72813 18.6628 8.26538 19.2 8.92813 19.2C9.59087 19.2 10.1281 18.6628 10.1281 18V14.4ZM12.5281 10.8C13.1909 10.8 13.7281 11.3373 13.7281 12V18C13.7281 18.6628 13.1909 19.2 12.5281 19.2C11.8654 19.2 11.3281 18.6628 11.3281 18V12C11.3281 11.3373 11.8654 10.8 12.5281 10.8ZM17.3281 9.60002C17.3281 8.93728 16.7909 8.40002 16.1281 8.40002C15.4654 8.40002 14.9281 8.93728 14.9281 9.60002V18C14.9281 18.6628 15.4654 19.2 16.1281 19.2C16.7909 19.2 17.3281 18.6628 17.3281 18V9.60002Z" fill="#111827"/>
</svg>
