<svg width="25" height="24" viewBox="0 0 25 24" fill="none" xmlns="http://www.w3.org/2000/svg">
<path fill-rule="evenodd" clip-rule="evenodd" d="M4.1281 3.59998C3.46536 3.59998 2.9281 4.13723 2.9281 4.79998C2.9281 5.46272 3.46536 5.99998 4.1281 5.99998V15.6C4.1281 16.9255 5.20262 18 6.5281 18H9.63104L8.07957 19.5514C7.61094 20.0201 7.61094 20.7799 8.07957 21.2485C8.5482 21.7171 9.308 21.7171 9.77663 21.2485L12.5281 18.497L15.2796 21.2485C15.7482 21.7171 16.508 21.7171 16.9766 21.2485C17.4453 20.7799 17.4453 20.0201 16.9766 19.5514L15.4252 18H18.5281C19.8536 18 20.9281 16.9255 20.9281 15.6V5.99998C21.5908 5.99998 22.1281 5.46272 22.1281 4.79998C22.1281 4.13723 21.5908 3.59998 20.9281 3.59998H4.1281ZM18.1766 9.2485C18.6453 8.77987 18.6453 8.02008 18.1766 7.55145C17.708 7.08282 16.9482 7.08282 16.4796 7.55145L12.5281 11.5029L10.9766 9.95145C10.508 9.48282 9.7482 9.48282 9.27957 9.95145L6.87957 12.3514C6.41094 12.8201 6.41094 13.5799 6.87957 14.0485C7.3482 14.5171 8.108 14.5171 8.57663 14.0485L10.1281 12.497L11.6796 14.0485C12.1482 14.5171 12.908 14.5171 13.3766 14.0485L18.1766 9.2485Z" fill="#111827"/>
</svg>
