<svg width="25" height="24" viewBox="0 0 25 24" fill="none" xmlns="http://www.w3.org/2000/svg">
<path fill-rule="evenodd" clip-rule="evenodd" d="M4.1281 3.59998C3.46536 3.59998 2.9281 4.13723 2.9281 4.79998C2.9281 5.46272 3.46536 5.99998 4.1281 5.99998V15.6C4.1281 16.9255 5.20262 18 6.5281 18H9.63104L8.07957 19.5514C7.61094 20.0201 7.61094 20.7799 8.07957 21.2485C8.5482 21.7171 9.308 21.7171 9.77663 21.2485L12.5281 18.497L15.2796 21.2485C15.7482 21.7171 16.508 21.7171 16.9766 21.2485C17.4453 20.7799 17.4453 20.0201 16.9766 19.5514L15.4252 18H18.5281C19.8536 18 20.9281 16.9255 20.9281 15.6V5.99998C21.5908 5.99998 22.1281 5.46272 22.1281 4.79998C22.1281 4.13723 21.5908 3.59998 20.9281 3.59998H4.1281ZM17.3281 8.39998C17.3281 7.73723 16.7908 7.19998 16.1281 7.19998C15.4654 7.19998 14.9281 7.73723 14.9281 8.39998V13.2C14.9281 13.8627 15.4654 14.4 16.1281 14.4C16.7908 14.4 17.3281 13.8627 17.3281 13.2V8.39998ZM13.7281 9.59998C13.7281 8.93723 13.1908 8.39998 12.5281 8.39998C11.8654 8.39998 11.3281 8.93723 11.3281 9.59998V13.2C11.3281 13.8627 11.8654 14.4 12.5281 14.4C13.1908 14.4 13.7281 13.8627 13.7281 13.2V9.59998ZM10.1281 10.8C10.1281 10.1372 9.59084 9.59998 8.9281 9.59998C8.26536 9.59998 7.7281 10.1372 7.7281 10.8V13.2C7.7281 13.8627 8.26536 14.4 8.9281 14.4C9.59084 14.4 10.1281 13.8627 10.1281 13.2V10.8Z" fill="#111827"/>
</svg>
