<svg width="25" height="24" viewBox="0 0 25 24" fill="none" xmlns="http://www.w3.org/2000/svg">
<path d="M6.52817 3.59998C5.86543 3.59998 5.32817 4.13723 5.32817 4.79998C5.32817 5.46272 5.86543 5.99998 6.52817 5.99998C13.1556 5.99998 18.5282 11.3726 18.5282 18C18.5282 18.6627 19.0654 19.2 19.7282 19.2C20.3909 19.2 20.9282 18.6627 20.9282 18C20.9282 10.0471 14.4811 3.59998 6.52817 3.59998Z" fill="#111827"/>
<path d="M5.32817 10.8C5.32817 10.1372 5.86543 9.59998 6.52817 9.59998C11.1674 9.59998 14.9282 13.3608 14.9282 18C14.9282 18.6627 14.3909 19.2 13.7282 19.2C13.0654 19.2 12.5282 18.6627 12.5282 18C12.5282 14.6863 9.84188 12 6.52817 12C5.86543 12 5.32817 11.4627 5.32817 10.8Z" fill="#111827"/>
<path d="M4.12817 18C4.12817 16.6745 5.20269 15.6 6.52817 15.6C7.85366 15.6 8.92817 16.6745 8.92817 18C8.92817 19.3255 7.85366 20.4 6.52817 20.4C5.20269 20.4 4.12817 19.3255 4.12817 18Z" fill="#111827"/>
</svg>
