<svg width="25" height="24" viewBox="0 0 25 24" fill="none" xmlns="http://www.w3.org/2000/svg">
<path fill-rule="evenodd" clip-rule="evenodd" d="M14.928 15.6C14.2652 15.6 13.728 16.1373 13.728 16.8C13.728 17.4627 14.2652 18 14.928 18H20.928C21.5907 18 22.128 17.4627 22.128 16.8V10.8C22.128 10.1373 21.5907 9.6 20.928 9.6C20.2652 9.6 19.728 10.1373 19.728 10.8V13.9029L14.5765 8.75147C14.1079 8.28284 13.3481 8.28284 12.8795 8.75147L10.128 11.5029L4.97651 6.35147C4.50788 5.88284 3.74808 5.88284 3.27945 6.35147C2.81082 6.8201 2.81082 7.5799 3.27945 8.04853L9.27945 14.0485C9.74808 14.5172 10.5079 14.5172 10.9765 14.0485L13.728 11.2971L18.0309 15.6H14.928Z" fill="#111827"/>
</svg>
