<svg width="25" height="24" viewBox="0 0 25 24" fill="none" xmlns="http://www.w3.org/2000/svg">
<path fill-rule="evenodd" clip-rule="evenodd" d="M14.928 8.4C14.2652 8.4 13.728 7.86274 13.728 7.2C13.728 6.53726 14.2652 6 14.928 6H20.928C21.5907 6 22.128 6.53726 22.128 7.2V13.2C22.128 13.8627 21.5907 14.4 20.928 14.4C20.2652 14.4 19.728 13.8627 19.728 13.2V10.0971L14.5765 15.2485C14.1079 15.7172 13.3481 15.7172 12.8795 15.2485L10.128 12.4971L4.97651 17.6485C4.50788 18.1172 3.74808 18.1172 3.27945 17.6485C2.81082 17.1799 2.81082 16.4201 3.27945 15.9515L9.27945 9.95147C9.74808 9.48284 10.5079 9.48284 10.9765 9.95147L13.728 12.7029L18.0309 8.4H14.928Z" fill="#111827"/>
</svg>
