<svg width="25" height="24" viewBox="0 0 25 24" fill="none" xmlns="http://www.w3.org/2000/svg">
<path d="M10.1281 10.8C12.1163 10.8 13.7281 9.1882 13.7281 7.19998C13.7281 5.21175 12.1163 3.59998 10.1281 3.59998C8.13988 3.59998 6.5281 5.21175 6.5281 7.19998C6.5281 9.1882 8.13988 10.8 10.1281 10.8Z" fill="#111827"/>
<path d="M10.1281 13.2C14.1046 13.2 17.3281 16.4235 17.3281 20.4H2.9281C2.9281 16.4235 6.15165 13.2 10.1281 13.2Z" fill="#111827"/>
<path d="M19.7281 8.39998C19.7281 7.73723 19.1908 7.19998 18.5281 7.19998C17.8654 7.19998 17.3281 7.73723 17.3281 8.39998V9.59998H16.1281C15.4654 9.59997 14.9281 10.1372 14.9281 10.8C14.9281 11.4627 15.4654 12 16.1281 12H17.3281V13.2C17.3281 13.8627 17.8654 14.4 18.5281 14.4C19.1908 14.4 19.7281 13.8627 19.7281 13.2V12H20.9281C21.5908 12 22.1281 11.4627 22.1281 10.8C22.1281 10.1372 21.5908 9.59998 20.9281 9.59998H19.7281V8.39998Z" fill="#111827"/>
</svg>
