<svg width="23" height="24" viewBox="0 0 23 24" fill="none" xmlns="http://www.w3.org/2000/svg">
<path d="M2.25281 4.79998C2.25281 4.13723 2.75711 3.59998 3.37921 3.59998H5.63201C6.2541 3.59998 6.75841 4.13723 6.75841 4.79998V19.2C6.75841 19.8627 6.2541 20.4 5.63201 20.4H3.37921C2.75711 20.4 2.25281 19.8627 2.25281 19.2V4.79998Z" fill="#111827"/>
<path d="M9.01121 4.79998C9.01121 4.13723 9.51551 3.59998 10.1376 3.59998H12.3904C13.0125 3.59998 13.5168 4.13723 13.5168 4.79998V19.2C13.5168 19.8627 13.0125 20.4 12.3904 20.4H10.1376C9.51551 20.4 9.01121 19.8627 9.01121 19.2V4.79998Z" fill="#111827"/>
<path d="M16.896 3.59998C16.2739 3.59998 15.7696 4.13723 15.7696 4.79998V19.2C15.7696 19.8627 16.2739 20.4 16.896 20.4H19.1488C19.7709 20.4 20.2752 19.8627 20.2752 19.2V4.79998C20.2752 4.13723 19.7709 3.59998 19.1488 3.59998H16.896Z" fill="#111827"/>
</svg>
