<svg width="25" height="24" viewBox="0 0 25 24" fill="none" xmlns="http://www.w3.org/2000/svg">
<path fill-rule="evenodd" clip-rule="evenodd" d="M21.8618 9.86617C16.7069 4.71125 8.34908 4.71125 3.19416 9.86617C2.72553 10.3348 1.96573 10.3348 1.4971 9.86617C1.02847 9.39754 1.02847 8.63774 1.4971 8.16911C7.58928 2.07693 17.4667 2.07693 23.5588 8.16911C24.0275 8.63774 24.0275 9.39754 23.5588 9.86617C23.0902 10.3348 22.3304 10.3348 21.8618 9.86617ZM18.4677 13.2603C15.1873 9.97988 9.86867 9.97988 6.58827 13.2603C6.11964 13.7289 5.35984 13.7289 4.89121 13.2603C4.42258 12.7917 4.42258 12.0319 4.89121 11.5632C9.10888 7.34557 15.9471 7.34557 20.1647 11.5632C20.6333 12.0319 20.6333 12.7917 20.1647 13.2603C19.6961 13.7289 18.9363 13.7289 18.4677 13.2603ZM15.0735 16.6544C13.6677 15.2485 11.3883 15.2485 9.98238 16.6544C9.51375 17.123 8.75395 17.123 8.28533 16.6544C7.8167 16.1858 7.8167 15.426 8.28533 14.9573C10.6285 12.6142 14.4275 12.6142 16.7706 14.9573C17.2392 15.426 17.2392 16.1858 16.7706 16.6544C16.302 17.123 15.5422 17.123 15.0735 16.6544ZM11.328 19.2C11.328 18.5373 11.8652 18 12.528 18H12.54C13.2027 18 13.74 18.5373 13.74 19.2C13.74 19.8627 13.2027 20.4 12.54 20.4H12.528C11.8652 20.4 11.328 19.8627 11.328 19.2Z" fill="#111827"/>
</svg>
