<svg width="24" height="24" viewBox="0 0 24 24" fill="none" xmlns="http://www.w3.org/2000/svg">
<path d="M12.4727 2.49693C12.1709 2.36756 11.8292 2.36756 11.5273 2.49693L3.12732 6.09693C2.6861 6.28602 2.40002 6.71987 2.40002 7.1999C2.40002 7.67994 2.6861 8.11378 3.12732 8.30288L6.30047 9.6628C6.41586 9.53206 6.5605 9.42558 6.72732 9.35409L11.5273 7.29694C12.1365 7.03588 12.8419 7.31806 13.103 7.92721C13.3641 8.53637 13.0819 9.24182 12.4727 9.50289L9.20004 10.9055L11.5273 11.9029C11.8292 12.0322 12.1709 12.0322 12.4727 11.9029L20.8727 8.30288C21.3139 8.11378 21.6 7.67994 21.6 7.1999C21.6 6.71987 21.3139 6.28602 20.8727 6.09693L12.4727 2.49693Z" fill="#111827"/>
<path d="M3.97208 11.276L6.00002 12.1451V17.0671C5.5887 16.9738 5.16849 16.904 4.74087 16.8591C4.17715 16.8 3.73166 16.3545 3.67255 15.7908C3.62458 15.3333 3.60002 14.8692 3.60002 14.3997C3.60002 13.3239 3.72892 12.2777 3.97208 11.276Z" fill="#111827"/>
<path d="M11.16 19.8869C10.3525 19.0953 9.42203 18.43 8.40002 17.922V13.1737L10.5819 14.1088C11.4875 14.4969 12.5126 14.4969 13.4181 14.1088L20.028 11.276C20.2711 12.2777 20.4 13.3239 20.4 14.3997C20.4 14.8692 20.3755 15.3333 20.3275 15.7908C20.2684 16.3545 19.8229 16.8 19.2592 16.8591C16.7718 17.12 14.5349 18.2255 12.8401 19.8869C12.3735 20.3443 11.6266 20.3443 11.16 19.8869Z" fill="#111827"/>
<path d="M7.20002 21.5999C7.86277 21.5999 8.40002 21.0626 8.40002 20.3999V17.922C7.64566 17.5471 6.84143 17.2579 6.00002 17.0671V20.3999C6.00002 21.0626 6.53728 21.5999 7.20002 21.5999Z" fill="#111827"/>
</svg>
