<svg width="24" height="24" viewBox="0 0 24 24" fill="none" xmlns="http://www.w3.org/2000/svg">
<path fill-rule="evenodd" clip-rule="evenodd" d="M21.5999 15.6001V6.0001C21.5999 4.67461 20.5254 3.6001 19.1999 3.6001H4.7999C3.47442 3.6001 2.3999 4.67461 2.3999 6.0001V15.6001C2.3999 16.9256 3.47442 18.0001 4.7999 18.0001H8.3999L11.9999 21.6001L15.5999 18.0001H19.1999C20.5254 18.0001 21.5999 16.9256 21.5999 15.6001ZM5.9999 8.4001C5.9999 7.73736 6.53716 7.2001 7.1999 7.2001H16.7999C17.4626 7.2001 17.9999 7.73736 17.9999 8.4001C17.9999 9.06284 17.4626 9.6001 16.7999 9.6001H7.1999C6.53716 9.6001 5.9999 9.06284 5.9999 8.4001ZM7.1999 12.0001C6.53716 12.0001 5.9999 12.5374 5.9999 13.2001C5.9999 13.8628 6.53716 14.4001 7.1999 14.4001H10.7999C11.4626 14.4001 11.9999 13.8628 11.9999 13.2001C11.9999 12.5374 11.4626 12.0001 10.7999 12.0001H7.1999Z" fill="#111827"/>
</svg>
