<svg width="24" height="24" viewBox="0 0 24 24" fill="none" xmlns="http://www.w3.org/2000/svg">
<path fill-rule="evenodd" clip-rule="evenodd" d="M8.04843 5.85446C8.72356 5.17933 9.63924 4.80005 10.594 4.80005H17.9999C19.9881 4.80005 21.5999 6.41182 21.5999 8.40005V15.6C21.5999 17.5883 19.9881 19.2 17.9999 19.2H10.594C9.63924 19.2 8.72356 18.8208 8.04843 18.1456L2.75137 12.8486C2.52633 12.6235 2.3999 12.3183 2.3999 12C2.3999 11.6818 2.52633 11.3766 2.75137 11.1515L8.04843 5.85446ZM12.8484 8.75152C12.3798 8.28289 11.62 8.28289 11.1514 8.75152C10.6827 9.22015 10.6827 9.97995 11.1514 10.4486L12.7028 12L11.1514 13.5515C10.6827 14.0202 10.6827 14.7799 11.1514 15.2486C11.62 15.7172 12.3798 15.7172 12.8484 15.2486L14.3999 13.6971L15.9514 15.2486C16.42 15.7172 17.1798 15.7172 17.6484 15.2486C18.1171 14.7799 18.1171 14.0202 17.6484 13.5515L16.097 12L17.6484 10.4486C18.1171 9.97995 18.1171 9.22015 17.6484 8.75152C17.1798 8.28289 16.42 8.28289 15.9514 8.75152L14.3999 10.303L12.8484 8.75152Z" fill="#111827"/>
</svg>
