<svg width="24" height="24" viewBox="0 0 24 24" fill="none" xmlns="http://www.w3.org/2000/svg">
<path fill-rule="evenodd" clip-rule="evenodd" d="M21.6 11.9999C21.6 17.3018 17.302 21.5999 12 21.5999C6.69809 21.5999 2.40002 17.3018 2.40002 11.9999C2.40002 6.69797 6.69809 2.3999 12 2.3999C17.302 2.3999 21.6 6.69797 21.6 11.9999ZM16.172 17.8687C14.995 18.7069 13.5551 19.1999 12 19.1999C8.02357 19.1999 4.80002 15.9764 4.80002 11.9999C4.80002 10.4449 5.293 9.00497 6.13119 7.82798L16.172 17.8687ZM17.869 16.1717L7.82827 6.13094C9.00524 5.29283 10.4451 4.7999 12 4.7999C15.9765 4.7999 19.2 8.02345 19.2 11.9999C19.2 13.5549 18.7071 14.9947 17.869 16.1717Z" fill="#111827"/>
</svg>
