<svg width="24" height="24" viewBox="0 0 24 24" fill="none" xmlns="http://www.w3.org/2000/svg">
<path fill-rule="evenodd" clip-rule="evenodd" d="M7.20005 2.3999C5.87457 2.3999 4.80005 3.47442 4.80005 4.7999V19.1999C4.80005 20.5254 5.87457 21.5999 7.20005 21.5999H16.8001C18.1255 21.5999 19.2001 20.5254 19.2001 19.1999V4.7999C19.2001 3.47442 18.1255 2.3999 16.8 2.3999H7.20005ZM8.40005 4.7999C7.73731 4.7999 7.20005 5.33716 7.20005 5.9999C7.20005 6.66264 7.73731 7.1999 8.40005 7.1999H15.6C16.2628 7.1999 16.8 6.66264 16.8 5.9999C16.8 5.33716 16.2628 4.7999 15.6 4.7999H8.40005ZM15.6 13.1999C16.2628 13.1999 16.8 13.7372 16.8 14.3999V17.9999C16.8 18.6626 16.2628 19.1999 15.6 19.1999C14.9373 19.1999 14.4 18.6626 14.4 17.9999V14.3999C14.4 13.7372 14.9373 13.1999 15.6 13.1999ZM12 16.7999C11.3373 16.7999 10.8 17.3372 10.8 17.9999C10.8 18.6626 11.3373 19.1999 12 19.1999H12.012C12.6748 19.1999 13.212 18.6626 13.212 17.9999C13.212 17.3372 12.6748 16.7999 12.012 16.7999H12ZM7.20005 17.9999C7.20005 17.3372 7.73731 16.7999 8.40005 16.7999H8.41205C9.07479 16.7999 9.61205 17.3372 9.61205 17.9999C9.61205 18.6626 9.07479 19.1999 8.41205 19.1999H8.40005C7.73731 19.1999 7.20005 18.6626 7.20005 17.9999ZM8.40005 13.1999C7.73731 13.1999 7.20005 13.7372 7.20005 14.3999C7.20005 15.0626 7.73731 15.5999 8.40005 15.5999H8.41205C9.07479 15.5999 9.61205 15.0626 9.61205 14.3999C9.61205 13.7372 9.07479 13.1999 8.41205 13.1999H8.40005ZM10.8 14.3999C10.8 13.7372 11.3373 13.1999 12 13.1999H12.012C12.6748 13.1999 13.212 13.7372 13.212 14.3999C13.212 15.0626 12.6748 15.5999 12.012 15.5999H12C11.3373 15.5999 10.8 15.0626 10.8 14.3999ZM15.6 9.5999C14.9373 9.5999 14.4 10.1372 14.4 10.7999C14.4 11.4626 14.9373 11.9999 15.6 11.9999H15.612C16.2748 11.9999 16.812 11.4626 16.812 10.7999C16.812 10.1372 16.2748 9.5999 15.612 9.5999H15.6ZM10.8 10.7999C10.8 10.1372 11.3373 9.5999 12 9.5999H12.012C12.6748 9.5999 13.212 10.1372 13.212 10.7999C13.212 11.4626 12.6748 11.9999 12.012 11.9999H12C11.3373 11.9999 10.8 11.4626 10.8 10.7999ZM8.40005 9.5999C7.73731 9.5999 7.20005 10.1372 7.20005 10.7999C7.20005 11.4626 7.73731 11.9999 8.40005 11.9999H8.41205C9.07479 11.9999 9.61205 11.4626 9.61205 10.7999C9.61205 10.1372 9.07479 9.5999 8.41205 9.5999H8.40005Z" fill="#111827"/>
</svg>
