<svg width="24" height="24" viewBox="0 0 24 24" fill="none" xmlns="http://www.w3.org/2000/svg">
<path d="M2.3999 6.0001C2.3999 4.67461 3.47442 3.6001 4.7999 3.6001H13.1999C14.5254 3.6001 15.5999 4.67461 15.5999 6.0001V10.8001C15.5999 12.1256 14.5254 13.2001 13.1999 13.2001H10.7999L7.1999 16.8001V13.2001H4.7999C3.47442 13.2001 2.3999 12.1256 2.3999 10.8001V6.0001Z" fill="#111827"/>
<path d="M17.9999 8.4001V11.6001C17.9999 13.8092 16.209 15.6001 13.9999 15.6001H11.794L9.67397 17.7201C10.0097 17.8988 10.393 18.0001 10.7999 18.0001H13.1999L16.7999 21.6001V18.0001H19.1999C20.5254 18.0001 21.5999 16.9256 21.5999 15.6001V10.8001C21.5999 9.47461 20.5254 8.4001 19.1999 8.4001H17.9999Z" fill="#111827"/>
</svg>
