<svg width="24" height="24" viewBox="0 0 24 24" fill="none" xmlns="http://www.w3.org/2000/svg">
<path d="M15.6 8.39995H8.39995V15.6H15.6V8.39995Z" fill="#111827"/>
<path fill-rule="evenodd" clip-rule="evenodd" d="M8.39995 2.39995C8.39995 1.73721 8.93721 1.19995 9.59995 1.19995C10.2627 1.19995 10.8 1.73721 10.8 2.39995V3.59995H13.2V2.39995C13.2 1.73721 13.7372 1.19995 14.4 1.19995C15.0627 1.19995 15.6 1.73721 15.6 2.39995V3.59995H18C19.3254 3.59995 20.4 4.67447 20.4 5.99995V8.39995H21.6C22.2627 8.39995 22.7999 8.93721 22.7999 9.59995C22.7999 10.2627 22.2627 10.8 21.6 10.8H20.4V13.2H21.6C22.2627 13.2 22.7999 13.7372 22.7999 14.4C22.7999 15.0627 22.2627 15.6 21.6 15.6H20.4V18C20.4 19.3254 19.3254 20.4 18 20.4H15.6V21.6C15.6 22.2627 15.0627 22.7999 14.4 22.7999C13.7372 22.7999 13.2 22.2627 13.2 21.6V20.4H10.8V21.6C10.8 22.2627 10.2627 22.7999 9.59995 22.7999C8.93721 22.7999 8.39995 22.2627 8.39995 21.6V20.4H5.99995C4.67447 20.4 3.59995 19.3254 3.59995 18V15.6H2.39995C1.73721 15.6 1.19995 15.0627 1.19995 14.4C1.19995 13.7372 1.73721 13.2 2.39995 13.2H3.59995V10.8H2.39995C1.73721 10.8 1.19995 10.2627 1.19995 9.59995C1.19995 8.93721 1.73721 8.39995 2.39995 8.39995H3.59995V5.99995C3.59995 4.67447 4.67447 3.59995 5.99995 3.59995H8.39995V2.39995ZM5.99995 5.99995H18V18H5.99995V5.99995Z" fill="#111827"/>
</svg>
