<svg width="24" height="24" viewBox="0 0 24 24" fill="none" xmlns="http://www.w3.org/2000/svg">
<path d="M10.8 2.3999C10.1373 2.3999 9.60005 2.93716 9.60005 3.5999C9.60005 4.26264 10.1373 4.7999 10.8 4.7999H13.2C13.8628 4.7999 14.4 4.26264 14.4 3.5999C14.4 2.93716 13.8628 2.3999 13.2 2.3999H10.8Z" fill="#111827"/>
<path fill-rule="evenodd" clip-rule="evenodd" d="M4.80005 5.9999C4.80005 4.67442 5.87457 3.5999 7.20005 3.5999C7.20005 5.58813 8.81182 7.1999 10.8 7.1999H13.2C15.1883 7.1999 16.8 5.58813 16.8 3.5999C18.1255 3.5999 19.2 4.67442 19.2 5.9999V19.1999C19.2 20.5254 18.1255 21.5999 16.8 21.5999H7.20005C5.87457 21.5999 4.80005 20.5254 4.80005 19.1999V5.9999ZM16.4486 12.8484C16.9172 12.3798 16.9172 11.62 16.4486 11.1514C15.9799 10.6827 15.2201 10.6827 14.7515 11.1514L10.8 15.1028L9.24858 13.5514C8.77995 13.0827 8.02015 13.0827 7.55152 13.5514C7.08289 14.02 7.08289 14.7798 7.55152 15.2484L9.95152 17.6484C10.4201 18.1171 11.1799 18.1171 11.6486 17.6484L16.4486 12.8484Z" fill="#111827"/>
</svg>
