<svg width="24" height="24" viewBox="0 0 24 24" fill="none" xmlns="http://www.w3.org/2000/svg">
<path d="M9.60005 3.5999C9.60005 2.93716 10.1373 2.3999 10.8 2.3999H13.2C13.8628 2.3999 14.4 2.93716 14.4 3.5999C14.4 4.26264 13.8628 4.7999 13.2 4.7999H10.8C10.1373 4.7999 9.60005 4.26264 9.60005 3.5999Z" fill="#111827"/>
<path d="M7.20005 3.5999C5.87457 3.5999 4.80005 4.67442 4.80005 5.9999V19.1999C4.80005 20.5254 5.87457 21.5999 7.20005 21.5999H16.8C18.1255 21.5999 19.2 20.5254 19.2 19.1999V5.9999C19.2 4.67442 18.1255 3.5999 16.8 3.5999C16.8 5.58813 15.1883 7.1999 13.2 7.1999H10.8C8.81182 7.1999 7.20005 5.58813 7.20005 3.5999Z" fill="#111827"/>
</svg>
