<svg width="24" height="24" viewBox="0 0 24 24" fill="none" xmlns="http://www.w3.org/2000/svg">
<path fill-rule="evenodd" clip-rule="evenodd" d="M14.7794 3.66151C15.4082 3.87109 15.7479 4.55068 15.5384 5.17941L10.7384 19.5794C10.5288 20.2081 9.84921 20.5479 9.22048 20.3384C8.59175 20.1288 8.25195 19.4492 8.46153 18.8205L13.2615 4.42046C13.4711 3.79173 14.1507 3.45194 14.7794 3.66151ZM6.84848 7.55141C7.31711 8.02004 7.31711 8.77983 6.84848 9.24846L4.09701 11.9999L6.84848 14.7514C7.31711 15.22 7.31711 15.9798 6.84848 16.4485C6.37985 16.9171 5.62005 16.9171 5.15142 16.4485L1.55142 12.8485C1.08279 12.3798 1.08279 11.62 1.55142 11.1514L5.15142 7.55141C5.62005 7.08278 6.37985 7.08278 6.84848 7.55141ZM17.1514 7.55141C17.6201 7.08278 18.3798 7.08278 18.8485 7.55141L22.4485 11.1514C22.9171 11.62 22.9171 12.3798 22.4485 12.8485L18.8485 16.4485C18.3798 16.9171 17.6201 16.9171 17.1514 16.4485C16.6828 15.9798 16.6828 15.22 17.1514 14.7514L19.9029 11.9999L17.1514 9.24846C16.6828 8.77983 16.6828 8.02004 17.1514 7.55141Z" fill="#111827"/>
</svg>
