<svg width="24" height="24" viewBox="0 0 24 24" fill="none" xmlns="http://www.w3.org/2000/svg">
<path d="M8.3999 3.6001C7.73716 3.6001 7.1999 4.13736 7.1999 4.8001C7.1999 5.46284 7.73716 6.0001 8.3999 6.0001H15.5999C16.2626 6.0001 16.7999 5.46284 16.7999 4.8001C16.7999 4.13736 16.2626 3.6001 15.5999 3.6001H8.3999Z" fill="#111827"/>
<path d="M4.7999 8.4001C4.7999 7.73736 5.33716 7.2001 5.9999 7.2001H17.9999C18.6626 7.2001 19.1999 7.73736 19.1999 8.4001C19.1999 9.06284 18.6626 9.6001 17.9999 9.6001H5.9999C5.33716 9.6001 4.7999 9.06284 4.7999 8.4001Z" fill="#111827"/>
<path d="M2.3999 13.2001C2.3999 11.8746 3.47442 10.8001 4.7999 10.8001H19.1999C20.5254 10.8001 21.5999 11.8746 21.5999 13.2001V18.0001C21.5999 19.3256 20.5254 20.4001 19.1999 20.4001H4.7999C3.47442 20.4001 2.3999 19.3256 2.3999 18.0001V13.2001Z" fill="#111827"/>
</svg>
