<svg width="24" height="24" viewBox="0 0 24 24" fill="none" xmlns="http://www.w3.org/2000/svg">
<path d="M13.2 20.3999C13.2 20.8158 13.4153 21.202 13.7691 21.4207C14.1229 21.6393 14.5646 21.6592 14.9366 21.4732L19.7366 19.0732C20.1432 18.8699 20.4 18.4544 20.4 17.9999V11.0832C20.4 10.6673 20.1846 10.2811 19.8309 10.0624C19.4771 9.84375 19.0353 9.82388 18.6633 10.0099L13.8633 12.4099C13.4568 12.6131 13.2 13.0287 13.2 13.4832V20.3999Z" fill="#111827"/>
<path d="M18.2533 7.53157C18.6599 7.3283 18.9167 6.91279 18.9167 6.45826C18.9167 6.00374 18.6599 5.58822 18.2533 5.38495L12.5366 2.52659C12.1988 2.35767 11.8012 2.35767 11.4633 2.52659L5.7466 5.38495C5.34006 5.58822 5.08326 6.00374 5.08326 6.45826C5.08326 6.91279 5.34006 7.3283 5.7466 7.53157L11.4633 10.3899C11.8012 10.5588 12.1988 10.5588 12.5366 10.3899L18.2533 7.53157Z" fill="#111827"/>
<path d="M5.33663 10.0099C4.96465 9.82388 4.52288 9.84375 4.1691 10.0624C3.81532 10.2811 3.59998 10.6673 3.59998 11.0832V17.9999C3.59998 18.4544 3.85678 18.8699 4.26332 19.0732L9.06332 21.4732C9.43531 21.6592 9.87707 21.6393 10.2309 21.4207C10.5846 21.202 10.8 20.8158 10.8 20.3999V13.4832C10.8 13.0287 10.5432 12.6131 10.1366 12.4099L5.33663 10.0099Z" fill="#111827"/>
</svg>
