<svg width="24" height="24" viewBox="0 0 24 24" fill="none" xmlns="http://www.w3.org/2000/svg">
<path d="M3.6001 14.3999V17.9999C3.6001 19.9881 7.36091 21.5999 12.0001 21.5999C16.6393 21.5999 20.4001 19.9881 20.4001 17.9999V14.3999C20.4001 16.3881 16.6393 17.9999 12.0001 17.9999C7.36091 17.9999 3.6001 16.3881 3.6001 14.3999Z" fill="#111827"/>
<path d="M3.6001 8.3999V11.9999C3.6001 13.9881 7.36091 15.5999 12.0001 15.5999C16.6393 15.5999 20.4001 13.9881 20.4001 11.9999V8.3999C20.4001 10.3881 16.6393 11.9999 12.0001 11.9999C7.36091 11.9999 3.6001 10.3881 3.6001 8.3999Z" fill="#111827"/>
<path d="M20.4001 5.9999C20.4001 7.98813 16.6393 9.5999 12.0001 9.5999C7.36091 9.5999 3.6001 7.98813 3.6001 5.9999C3.6001 4.01168 7.36091 2.3999 12.0001 2.3999C16.6393 2.3999 20.4001 4.01168 20.4001 5.9999Z" fill="#111827"/>
</svg>
