<svg width="24" height="24" viewBox="0 0 24 24" fill="none" xmlns="http://www.w3.org/2000/svg">
<path fill-rule="evenodd" clip-rule="evenodd" d="M11.9999 21.5999C17.3018 21.5999 21.5999 17.3018 21.5999 11.9999C21.5999 6.69797 17.3018 2.3999 11.9999 2.3999C6.69797 2.3999 2.3999 6.69797 2.3999 11.9999C2.3999 17.3018 6.69797 21.5999 11.9999 21.5999ZM8.3999 10.7999C9.06264 10.7999 9.5999 10.2626 9.5999 9.5999C9.5999 8.93716 9.06264 8.3999 8.3999 8.3999C7.73716 8.3999 7.1999 8.93716 7.1999 9.5999C7.1999 10.2626 7.73716 10.7999 8.3999 10.7999ZM16.7999 9.5999C16.7999 10.2626 16.2626 10.7999 15.5999 10.7999C14.9372 10.7999 14.3999 10.2626 14.3999 9.5999C14.3999 8.93716 14.9372 8.3999 15.5999 8.3999C16.2626 8.3999 16.7999 8.93716 16.7999 9.5999ZM16.2425 16.2424C16.7112 15.7738 16.7112 15.014 16.2425 14.5454C15.7739 14.0767 15.0141 14.0767 14.5455 14.5454C13.1396 15.9513 10.8602 15.9513 9.45432 14.5454C8.98569 14.0767 8.22589 14.0767 7.75726 14.5454C7.28863 15.014 7.28863 15.7738 7.75726 16.2424C10.1004 18.5856 13.8994 18.5856 16.2425 16.2424Z" fill="#111827"/>
</svg>
