<svg width="24" height="24" viewBox="0 0 24 24" fill="none" xmlns="http://www.w3.org/2000/svg">
<path fill-rule="evenodd" clip-rule="evenodd" d="M7.94969 3.1854C9.20203 2.67846 10.5699 2.3999 12 2.3999C17.9646 2.3999 22.7999 7.23523 22.7999 13.1999C22.7999 13.8626 22.2627 14.3999 21.6 14.3999C20.9372 14.3999 20.4 13.8626 20.4 13.1999C20.4 8.56071 16.6391 4.7999 12 4.7999C10.8838 4.7999 9.8213 5.01696 8.85021 5.41005C8.23589 5.65872 7.5363 5.3623 7.28763 4.74798C7.03895 4.13366 7.33537 3.43407 7.94969 3.1854ZM5.59403 5.95024C6.09091 6.3888 6.1382 7.14712 5.69964 7.644C4.39203 9.12551 3.59995 11.0687 3.59995 13.1999C3.59995 13.8626 3.06269 14.3999 2.39995 14.3999C1.73721 14.3999 1.19995 13.8626 1.19995 13.1999C1.19995 10.4617 2.22052 7.95898 3.90026 6.05584C4.33882 5.55896 5.09715 5.51168 5.59403 5.95024Z" fill="#111827"/>
<path fill-rule="evenodd" clip-rule="evenodd" d="M5.99995 13.1999C5.99995 9.8862 8.68624 7.1999 12 7.1999C15.3137 7.1999 18 9.8862 18 13.1999C18 13.8626 17.4627 14.3999 16.8 14.3999C16.1372 14.3999 15.6 13.8626 15.6 13.1999C15.6 11.2117 13.9882 9.5999 12 9.5999C10.0117 9.5999 8.39995 11.2117 8.39995 13.1999C8.39995 15.2125 7.98637 17.1316 7.23843 18.8744C6.97706 19.4834 6.27147 19.7653 5.66244 19.5039C5.05341 19.2425 4.77158 18.537 5.03295 17.9279C5.65492 16.4786 5.99995 14.8811 5.99995 13.1999ZM16.7053 15.6147C17.3599 15.7185 17.8064 16.3333 17.7025 16.9879C17.5445 17.9839 17.3253 18.9597 17.0486 19.9112C16.8636 20.5476 16.1978 20.9135 15.5614 20.7285C14.925 20.5435 14.5591 19.8777 14.7441 19.2413C14.9928 18.3857 15.19 17.508 15.3322 16.6119C15.436 15.9574 16.0508 15.5109 16.7053 15.6147Z" fill="#111827"/>
<path fill-rule="evenodd" clip-rule="evenodd" d="M12 11.9999C12.6627 11.9999 13.2 12.5372 13.2 13.1999C13.2 15.8835 12.6487 18.4414 11.6521 20.7642C11.3908 21.3732 10.6852 21.6551 10.0762 21.3938C9.46714 21.1325 9.18524 20.4269 9.44655 19.8179C10.3172 17.7886 10.8 15.5522 10.8 13.1999C10.8 12.5372 11.3372 11.9999 12 11.9999Z" fill="#111827"/>
</svg>
