<svg width="24" height="24" viewBox="0 0 24 24" fill="none" xmlns="http://www.w3.org/2000/svg">
<path fill-rule="evenodd" clip-rule="evenodd" d="M14.1082 2.44011C14.4409 2.52845 14.7196 2.75539 14.8735 3.06325C15.4538 4.2238 15.8869 4.92816 16.3226 5.49926C16.7636 6.07734 17.2301 6.55057 17.9398 7.26024C19.5798 8.90021 20.4001 11.0521 20.4001 13.1999C20.4001 15.3478 19.5798 17.4997 17.9398 19.1396C14.6594 22.42 9.3408 22.42 6.0604 19.1396C4.42044 17.4997 3.6001 15.3478 3.6001 13.1999C3.60009 11.0521 4.42043 8.90021 6.0604 7.26024C6.4036 6.91704 6.91974 6.81437 7.36815 7.00011C7.81656 7.18585 8.10893 7.62341 8.10893 8.10877C8.10893 9.45254 8.19284 10.4765 8.58587 11.2931C8.80199 11.7422 9.13912 12.1813 9.72015 12.5731C9.85892 11.3002 10.1131 9.74928 10.4566 8.27723C10.727 7.11825 11.0634 5.96118 11.4637 4.99629C11.6639 4.51368 11.8904 4.05415 12.1475 3.65739C12.3978 3.27119 12.7194 2.8782 13.1346 2.60145C13.421 2.41052 13.7755 2.35176 14.1082 2.44011ZM14.5457 18.1455C13.1398 19.5514 10.8604 19.5514 9.45451 18.1455C8.75157 17.4425 8.4001 16.5212 8.4001 15.5999C8.4001 15.5999 9.45451 16.1999 11.4002 16.1999C11.4002 14.9999 12.0002 11.3999 12.9002 10.7999C13.5002 11.9999 13.8427 12.3514 14.5457 13.0543C15.2486 13.7573 15.6001 14.6786 15.6001 15.5999C15.6001 16.5212 15.2486 17.4425 14.5457 18.1455Z" fill="#111827"/>
</svg>
