<svg width="24" height="24" viewBox="0 0 24 24" fill="none" xmlns="http://www.w3.org/2000/svg">
<path d="M10.8 3.5999C10.8 2.93716 11.3372 2.3999 12 2.3999C12.6627 2.3999 13.2 2.93716 13.2 3.5999V10.1999C13.2 10.5313 13.4686 10.7999 13.8 10.7999C14.1313 10.7999 14.4 10.5313 14.4 10.1999V4.7999C14.4 4.13716 14.9372 3.5999 15.6 3.5999C16.2627 3.5999 16.8 4.13716 16.8 4.7999V10.1999C16.8 10.5313 17.0686 10.7999 17.4 10.7999C17.7313 10.7999 18 10.5313 18 10.1999V7.1999C18 6.53716 18.5372 5.9999 19.2 5.9999C19.8627 5.9999 20.4 6.53716 20.4 7.1999V13.1999C20.4 17.8391 16.6392 21.5999 12 21.5999C7.36078 21.5999 3.59998 17.8391 3.59998 13.1999V10.7999C3.59998 10.1372 4.13723 9.5999 4.79998 9.5999C5.46272 9.5999 5.99998 10.1372 5.99998 10.7999V13.7999C5.99998 14.1313 6.2686 14.3999 6.59998 14.3999C6.93135 14.3999 7.19998 14.1313 7.19998 13.7999V4.7999C7.19998 4.13716 7.73723 3.5999 8.39998 3.5999C9.06272 3.5999 9.59998 4.13716 9.59998 4.7999V10.1999C9.59998 10.5313 9.8686 10.7999 10.2 10.7999C10.5313 10.7999 10.8 10.5313 10.8 10.1999V3.5999Z" fill="#111827"/>
</svg>
