<svg width="24" height="24" viewBox="0 0 24 24" fill="none" xmlns="http://www.w3.org/2000/svg">
<path fill-rule="evenodd" clip-rule="evenodd" d="M11.0911 3.63572C11.734 3.79646 12.1249 4.44798 11.9642 5.09094L11.437 7.19989H14.9631L15.6359 4.50885C15.7966 3.8659 16.4481 3.47498 17.0911 3.63572C17.734 3.79646 18.1249 4.44798 17.9642 5.09094L17.437 7.19989H20.4C21.0628 7.19989 21.6 7.73715 21.6 8.39989C21.6 9.06263 21.0628 9.59989 20.4 9.59989H16.837L15.637 14.3999H18C18.6628 14.3999 19.2 14.9372 19.2 15.5999C19.2 16.2626 18.6628 16.7999 18 16.7999H15.037L14.3642 19.4909C14.2035 20.1339 13.5519 20.5248 12.909 20.3641C12.266 20.2033 11.8751 19.5518 12.0359 18.9089L12.5631 16.7999H9.03696L8.3642 19.4909C8.20346 20.1339 7.55194 20.5248 6.90898 20.3641C6.26603 20.2033 5.87511 19.5518 6.03585 18.9089L6.56309 16.7999H3.60002C2.93728 16.7999 2.40002 16.2626 2.40002 15.5999C2.40002 14.9372 2.93728 14.3999 3.60002 14.3999H7.16309L8.36309 9.59989H6.00002C5.33728 9.59989 4.80002 9.06263 4.80002 8.39989C4.80002 7.73715 5.33728 7.19989 6.00002 7.19989H8.96309L9.63585 4.50885C9.79659 3.8659 10.4481 3.47498 11.0911 3.63572ZM10.837 9.59989L9.63696 14.3999H13.1631L14.3631 9.59989H10.837Z" fill="#111827"/>
</svg>
