<svg width="24" height="24" viewBox="0 0 24 24" fill="none" xmlns="http://www.w3.org/2000/svg">
<path fill-rule="evenodd" clip-rule="evenodd" d="M21.6 9.5999C21.6 13.5764 18.3765 16.7999 14.4 16.7999C13.6726 16.7999 12.9704 16.692 12.3085 16.4914L9.60002 19.1999H7.20002V21.5999H2.40002V16.7999L7.50851 11.6914C7.30789 11.0295 7.20002 10.3273 7.20002 9.5999C7.20002 5.62345 10.4236 2.3999 14.4 2.3999C18.3765 2.3999 21.6 5.62345 21.6 9.5999ZM14.4 4.7999C13.7373 4.7999 13.2 5.33716 13.2 5.9999C13.2 6.66264 13.7373 7.1999 14.4 7.1999C15.7255 7.1999 16.8 8.27442 16.8 9.5999C16.8 10.2626 17.3373 10.7999 18 10.7999C18.6628 10.7999 19.2 10.2626 19.2 9.5999C19.2 6.94894 17.051 4.7999 14.4 4.7999Z" fill="#111827"/>
</svg>
