<svg width="24" height="24" viewBox="0 0 24 24" fill="none" xmlns="http://www.w3.org/2000/svg">
<path d="M13.1999 3.5999C13.1999 2.93716 12.6626 2.3999 11.9999 2.3999C11.3372 2.3999 10.7999 2.93716 10.7999 3.5999V4.7999C10.7999 5.46264 11.3372 5.9999 11.9999 5.9999C12.6626 5.9999 13.1999 5.46264 13.1999 4.7999V3.5999Z" fill="#111827"/>
<path d="M18.7881 6.90867C19.2567 6.44004 19.2567 5.68024 18.7881 5.21161C18.3195 4.74299 17.5597 4.74299 17.091 5.21161L16.2425 6.06014C15.7739 6.52877 15.7739 7.28857 16.2425 7.7572C16.7111 8.22583 17.4709 8.22583 17.9396 7.7572L18.7881 6.90867Z" fill="#111827"/>
<path d="M21.5999 11.9999C21.5999 12.6626 21.0626 13.1999 20.3999 13.1999H19.1999C18.5372 13.1999 17.9999 12.6626 17.9999 11.9999C17.9999 11.3372 18.5372 10.7999 19.1999 10.7999H20.3999C21.0626 10.7999 21.5999 11.3372 21.5999 11.9999Z" fill="#111827"/>
<path d="M6.06013 7.75722C6.52876 8.22585 7.28856 8.22585 7.75718 7.75722C8.22581 7.28859 8.22581 6.52879 7.75718 6.06016L6.90866 5.21164C6.44003 4.74301 5.68023 4.74301 5.2116 5.21164C4.74297 5.68026 4.74297 6.44006 5.2116 6.90869L6.06013 7.75722Z" fill="#111827"/>
<path d="M5.9999 11.9999C5.9999 12.6626 5.46264 13.1999 4.7999 13.1999H3.5999C2.93716 13.1999 2.3999 12.6626 2.3999 11.9999C2.3999 11.3372 2.93716 10.7999 3.5999 10.7999H4.7999C5.46264 10.7999 5.9999 11.3372 5.9999 11.9999Z" fill="#111827"/>
<path d="M9.5999 19.1999V17.9999H14.3999V19.1999C14.3999 20.5254 13.3254 21.5999 11.9999 21.5999C10.6744 21.5999 9.5999 20.5254 9.5999 19.1999Z" fill="#111827"/>
<path d="M14.401 16.7999C14.4185 16.3915 14.649 16.0244 14.9721 15.7693C16.0854 14.8902 16.7999 13.5285 16.7999 11.9999C16.7999 9.34894 14.6509 7.1999 11.9999 7.1999C9.34894 7.1999 7.1999 9.34894 7.1999 11.9999C7.1999 13.5285 7.91444 14.8902 9.02773 15.7693C9.35079 16.0244 9.58132 16.3915 9.59883 16.7999H14.401Z" fill="#111827"/>
</svg>
