<svg width="24" height="24" viewBox="0 0 24 24" fill="none" xmlns="http://www.w3.org/2000/svg">
<path fill-rule="evenodd" clip-rule="evenodd" d="M13.5609 1.25555C14.0604 1.41302 14.4001 1.87627 14.4001 2.40004V8.40004L19.2001 8.40004C19.6476 8.40004 20.0578 8.64899 20.2645 9.04587C20.4711 9.44275 20.4398 9.92163 20.1832 10.2882L11.7832 22.2882C11.4828 22.7173 10.9389 22.902 10.4393 22.7445C9.9398 22.5871 9.6001 22.1238 9.6001 21.6L9.6001 15.6H4.8001C4.35265 15.6 3.94236 15.3511 3.73573 14.9542C3.52909 14.5573 3.56043 14.0784 3.81702 13.7119L12.217 1.71188C12.5174 1.2828 13.0613 1.09809 13.5609 1.25555Z" fill="#111827"/>
</svg>
