<svg width="24" height="24" viewBox="0 0 24 24" fill="none" xmlns="http://www.w3.org/2000/svg">
<path d="M12 2.3999C8.68627 2.3999 5.99998 5.08619 5.99998 8.3999V10.7999C4.67449 10.7999 3.59998 11.8744 3.59998 13.1999V19.1999C3.59998 20.5254 4.67449 21.5999 5.99998 21.5999H18C19.3255 21.5999 20.4 20.5254 20.4 19.1999V13.1999C20.4 11.8744 19.3255 10.7999 18 10.7999H8.39998V8.3999C8.39998 6.41168 10.0118 4.7999 12 4.7999C13.6758 4.7999 15.0869 5.94605 15.4866 7.49901C15.6518 8.14084 16.306 8.52722 16.9479 8.36203C17.5897 8.19683 17.9761 7.54262 17.8109 6.90079C17.1449 4.31321 14.7974 2.3999 12 2.3999Z" fill="#111827"/>
</svg>
