<svg width="24" height="24" viewBox="0 0 24 24" fill="none" xmlns="http://www.w3.org/2000/svg">
<path fill-rule="evenodd" clip-rule="evenodd" d="M12.5955 2.55801C12.2266 2.3472 11.7737 2.3472 11.4047 2.55801L3.00474 7.35801C2.42932 7.68682 2.2294 8.41985 2.55822 8.99527C2.77948 9.38247 3.18377 9.59965 3.5999 9.60011V17.9999C2.93716 17.9999 2.3999 18.5372 2.3999 19.1999C2.3999 19.8626 2.93716 20.3999 3.5999 20.3999H20.3999C21.0626 20.3999 21.5999 19.8626 21.5999 19.1999C21.5999 18.5372 21.0626 17.9999 20.3999 17.9999V9.60011C20.8162 9.59979 21.2207 9.3826 21.442 8.99527C21.7708 8.41985 21.5709 7.68682 20.9955 7.35801L12.5955 2.55801ZM7.1999 10.7999C6.53716 10.7999 5.9999 11.3372 5.9999 11.9999V15.5999C5.9999 16.2626 6.53716 16.7999 7.1999 16.7999C7.86264 16.7999 8.3999 16.2626 8.3999 15.5999V11.9999C8.3999 11.3372 7.86264 10.7999 7.1999 10.7999ZM10.7999 11.9999C10.7999 11.3372 11.3372 10.7999 11.9999 10.7999C12.6626 10.7999 13.1999 11.3372 13.1999 11.9999V15.5999C13.1999 16.2626 12.6626 16.7999 11.9999 16.7999C11.3372 16.7999 10.7999 16.2626 10.7999 15.5999V11.9999ZM16.7999 10.7999C16.1372 10.7999 15.5999 11.3372 15.5999 11.9999V15.5999C15.5999 16.2626 16.1372 16.7999 16.7999 16.7999C17.4626 16.7999 17.9999 16.2626 17.9999 15.5999V11.9999C17.9999 11.3372 17.4626 10.7999 16.7999 10.7999Z" fill="#111827"/>
</svg>
