<svg width="24" height="24" viewBox="0 0 24 24" fill="none" xmlns="http://www.w3.org/2000/svg">
<path d="M8.39998 4.79995C8.39998 2.81173 10.0118 1.19995 12 1.19995C13.9882 1.19995 15.6 2.81173 15.6 4.79995V9.59995C15.6 11.5882 13.9882 13.2 12 13.2C10.0118 13.2 8.39998 11.5882 8.39998 9.59995V4.79995Z" fill="#111827"/>
<path d="M13.2 17.9149C17.2707 17.3326 20.4 13.8317 20.4 9.59995C20.4 8.93721 19.8627 8.39995 19.2 8.39995C18.5372 8.39995 18 8.93721 18 9.59995C18 12.9137 15.3137 15.6 12 15.6C8.68627 15.6 5.99998 12.9137 5.99998 9.59995C5.99998 8.93721 5.46272 8.39995 4.79998 8.39995C4.13723 8.39995 3.59998 8.93721 3.59998 9.59995C3.59998 13.8317 6.72922 17.3326 10.8 17.9149V20.4H7.19998C6.53723 20.4 5.99998 20.9372 5.99998 21.6C5.99998 22.2627 6.53723 22.7999 7.19998 22.7999H16.8C17.4627 22.7999 18 22.2627 18 21.6C18 20.9372 17.4627 20.4 16.8 20.4H13.2V17.9149Z" fill="#111827"/>
</svg>
