<svg width="24" height="24" viewBox="0 0 24 24" fill="none" xmlns="http://www.w3.org/2000/svg">
<path d="M21.5999 3.59991C21.5999 3.2404 21.4387 2.89983 21.1607 2.6719C20.8827 2.44398 20.5171 2.35271 20.1646 2.42322L8.16456 4.82322C7.60365 4.9354 7.1999 5.4279 7.1999 5.99991V16.9365C6.82457 16.848 6.42067 16.7999 5.9999 16.7999C4.01168 16.7999 2.3999 17.8744 2.3999 19.1999C2.3999 20.5254 4.01168 21.5999 5.9999 21.5999C7.98812 21.5999 9.59989 20.5254 9.5999 19.1999V9.38367L19.1999 7.46367V14.5365C18.8246 14.448 18.4207 14.3999 17.9999 14.3999C16.0117 14.3999 14.3999 15.4744 14.3999 16.7999C14.3999 18.1254 16.0117 19.1999 17.9999 19.1999C19.9881 19.1999 21.5999 18.1254 21.5999 16.7999V3.59991Z" fill="#111827"/>
</svg>
