<svg width="24" height="24" viewBox="0 0 24 24" fill="none" xmlns="http://www.w3.org/2000/svg">
<path fill-rule="evenodd" clip-rule="evenodd" d="M2.3999 6.0001C2.3999 4.67461 3.47442 3.6001 4.7999 3.6001H14.3999C15.7254 3.6001 16.7999 4.67461 16.7999 6.0001V18.0001C16.7999 19.3256 17.8744 20.4001 19.1999 20.4001H4.7999C3.47442 20.4001 2.3999 19.3256 2.3999 18.0001V6.0001ZM5.9999 7.2001H13.1999V12.0001H5.9999V7.2001ZM13.1999 14.4001H5.9999V16.8001H13.1999V14.4001Z" fill="#111827"/>
<path d="M17.9999 8.4001H19.1999C20.5254 8.4001 21.5999 9.47461 21.5999 10.8001V17.4001C21.5999 18.3942 20.794 19.2001 19.7999 19.2001C18.8058 19.2001 17.9999 18.3942 17.9999 17.4001V8.4001Z" fill="#111827"/>
</svg>
