<svg width="24" height="24" viewBox="0 0 24 24" fill="none" xmlns="http://www.w3.org/2000/svg">
<path d="M13.0732 3.06325C12.87 2.65671 12.4544 2.3999 11.9999 2.3999C11.5454 2.3999 11.1299 2.65671 10.9266 3.06325L2.5266 19.8632C2.31378 20.2889 2.37259 20.8001 2.6765 21.1663C2.98042 21.5325 3.47201 21.6845 3.92958 21.5537L9.92957 19.8395C10.4447 19.6923 10.7999 19.2214 10.7999 18.6856V13.1999C10.7999 12.5372 11.3372 11.9999 11.9999 11.9999C12.6626 11.9999 13.1999 12.5372 13.1999 13.1999V18.6856C13.1999 19.2214 13.5551 19.6923 14.0702 19.8394L20.0702 21.5537C20.5278 21.6845 21.0194 21.5325 21.3233 21.1663C21.6272 20.8001 21.686 20.2889 21.4732 19.8632L13.0732 3.06325Z" fill="#111827"/>
</svg>
