<svg width="24" height="24" viewBox="0 0 24 24" fill="none" xmlns="http://www.w3.org/2000/svg">
<path fill-rule="evenodd" clip-rule="evenodd" d="M9.59998 4.7999C7.61175 4.7999 5.99998 6.41168 5.99998 8.3999V13.1999C5.99998 16.5136 8.68627 19.1999 12 19.1999C15.3137 19.1999 18 16.5136 18 13.1999V8.3999C18 7.73716 18.5372 7.1999 19.2 7.1999C19.8627 7.1999 20.4 7.73716 20.4 8.3999V13.1999C20.4 17.8391 16.6392 21.5999 12 21.5999C7.36078 21.5999 3.59998 17.8391 3.59998 13.1999V8.3999C3.59998 5.08619 6.28627 2.3999 9.59998 2.3999C12.9137 2.3999 15.6 5.08619 15.6 8.3999V13.1999C15.6 15.1881 13.9882 16.7999 12 16.7999C10.0118 16.7999 8.39998 15.1881 8.39998 13.1999V8.3999C8.39998 7.73716 8.93723 7.1999 9.59998 7.1999C10.2627 7.1999 10.8 7.73716 10.8 8.3999V13.1999C10.8 13.8626 11.3372 14.3999 12 14.3999C12.6627 14.3999 13.2 13.8626 13.2 13.1999V8.3999C13.2 6.41168 11.5882 4.7999 9.59998 4.7999Z" fill="#111827"/>
</svg>
