<svg width="24" height="24" viewBox="0 0 24 24" fill="none" xmlns="http://www.w3.org/2000/svg">
<path d="M2.40002 3.5999C2.40002 2.93716 2.93728 2.3999 3.60002 2.3999H6.18347C6.77008 2.3999 7.27071 2.824 7.36715 3.40262L8.25432 8.72567C8.34093 9.24531 8.07849 9.76067 7.6073 9.99626L5.74954 10.9251C7.08909 14.2539 9.74604 16.9108 13.0748 18.2504L14.0037 16.3926C14.2393 15.9214 14.7546 15.659 15.2743 15.7456L20.5973 16.6328C21.1759 16.7292 21.6 17.2298 21.6 17.8165V20.3999C21.6 21.0626 21.0628 21.5999 20.4 21.5999H18C9.38438 21.5999 2.40002 14.6155 2.40002 5.9999V3.5999Z" fill="#111827"/>
<path d="M20.0486 3.95137C20.5172 4.42 20.5172 5.1798 20.0486 5.64843L18.4971 7.1999L20.0486 8.75137C20.5172 9.22 20.5172 9.9798 20.0486 10.4484C19.5799 10.9171 18.8201 10.9171 18.3515 10.4484L16.8 8.89696L15.2486 10.4484C14.7799 10.9171 14.0201 10.9171 13.5515 10.4484C13.0829 9.9798 13.0829 9.22 13.5515 8.75137L15.103 7.1999L13.5515 5.64843C13.0829 5.1798 13.0829 4.42 13.5515 3.95137C14.0201 3.48274 14.7799 3.48274 15.2486 3.95137L16.8 5.50285L18.3515 3.95137C18.8201 3.48275 19.5799 3.48275 20.0486 3.95137Z" fill="#111827"/>
</svg>
