<svg width="24" height="24" viewBox="0 0 24 24" fill="none" xmlns="http://www.w3.org/2000/svg">
<path d="M12 4.1999C12 3.20579 12.8059 2.3999 13.8 2.3999C14.7941 2.3999 15.6 3.20579 15.6 4.1999V4.7999C15.6 5.46264 16.1373 5.9999 16.8 5.9999H20.4C21.0628 5.9999 21.6 6.53716 21.6 7.1999V10.7999C21.6 11.4626 21.0628 11.9999 20.4 11.9999H19.8C18.8059 11.9999 18 12.8058 18 13.7999C18 14.794 18.8059 15.5999 19.8 15.5999H20.4C21.0628 15.5999 21.6 16.1372 21.6 16.7999V20.3999C21.6 21.0626 21.0628 21.5999 20.4 21.5999H16.8C16.1373 21.5999 15.6 21.0626 15.6 20.3999V19.7999C15.6 18.8058 14.7941 17.9999 13.8 17.9999C12.8059 17.9999 12 18.8058 12 19.7999V20.3999C12 21.0626 11.4628 21.5999 10.8 21.5999H7.20002C6.53728 21.5999 6.00002 21.0626 6.00002 20.3999V16.7999C6.00002 16.1372 5.46277 15.5999 4.80002 15.5999H4.20002C3.20591 15.5999 2.40002 14.794 2.40002 13.7999C2.40002 12.8058 3.20591 11.9999 4.20002 11.9999H4.80002C5.46277 11.9999 6.00002 11.4626 6.00002 10.7999V7.1999C6.00002 6.53716 6.53728 5.9999 7.20002 5.9999H10.8C11.4628 5.9999 12 5.46264 12 4.7999V4.1999Z" fill="#111827"/>
</svg>
