<svg width="24" height="24" viewBox="0 0 24 24" fill="none" xmlns="http://www.w3.org/2000/svg">
<path fill-rule="evenodd" clip-rule="evenodd" d="M5.99998 2.3999C4.67449 2.3999 3.59998 3.47442 3.59998 4.7999V21.5999L7.79998 19.1999L12 21.5999L16.2 19.1999L20.4 21.5999V4.7999C20.4 3.47442 19.3255 2.3999 18 2.3999H5.99998ZM11.6485 6.84843C12.1171 6.3798 12.1171 5.62 11.6485 5.15137C11.1799 4.68275 10.4201 4.68275 9.95145 5.15137L6.35145 8.75137C5.88282 9.22 5.88282 9.9798 6.35145 10.4484L9.95145 14.0484C10.4201 14.5171 11.1799 14.5171 11.6485 14.0484C12.1171 13.5798 12.1171 12.82 11.6485 12.3514L10.097 10.7999H12C13.9882 10.7999 15.6 12.4117 15.6 14.3999V15.5999C15.6 16.2626 16.1372 16.7999 16.8 16.7999C17.4627 16.7999 18 16.2626 18 15.5999V14.3999C18 11.0862 15.3137 8.3999 12 8.3999H10.097L11.6485 6.84843Z" fill="#111827"/>
</svg>
