<svg width="24" height="24" viewBox="0 0 24 24" fill="none" xmlns="http://www.w3.org/2000/svg">
<path d="M9.24855 12.3516C8.77992 11.8829 8.02013 11.8829 7.5515 12.3516C7.08287 12.8202 7.08287 13.58 7.5515 14.0486L11.1515 17.6486C11.6201 18.1173 12.3799 18.1173 12.8486 17.6486L16.4486 14.0486C16.9172 13.58 16.9172 12.8202 16.4486 12.3516C15.9799 11.8829 15.2201 11.8829 14.7515 12.3516L13.2 13.903L13.2 7.2001H19.2C20.5255 7.2001 21.6 8.27461 21.6 9.6001V18.0001C21.6 19.3256 20.5255 20.4001 19.2 20.4001H4.80002C3.47454 20.4001 2.40002 19.3256 2.40002 18.0001V9.6001C2.40002 8.27461 3.47454 7.2001 4.80002 7.2001H10.8V13.903L9.24855 12.3516Z" fill="#111827"/>
<path d="M10.8 4.8001C10.8 4.13736 11.3373 3.6001 12 3.6001C12.6628 3.6001 13.2 4.13736 13.2 4.8001L13.2 7.2001H10.8L10.8 4.8001Z" fill="#111827"/>
</svg>
