<svg width="24" height="24" viewBox="0 0 24 24" fill="none" xmlns="http://www.w3.org/2000/svg">
<path d="M11.6486 8.75137C11.1799 8.28275 10.4201 8.28275 9.9515 8.75137C9.48287 9.22 9.48287 9.9798 9.9515 10.4484L13.5515 14.0484C14.0201 14.5171 14.7799 14.5171 15.2486 14.0484L18.8486 10.4484C19.3172 9.9798 19.3172 9.22 18.8486 8.75137C18.3799 8.28274 17.6201 8.28274 17.1515 8.75137L15.6 10.3028L15.6 5.9999H19.2C20.5255 5.9999 21.6 7.07442 21.6 8.3999V14.3999C21.6 15.7254 20.5255 16.7999 19.2 16.7999H9.60002C8.27454 16.7999 7.20002 15.7254 7.20002 14.3999V8.3999C7.20002 7.07442 8.27454 5.9999 9.60002 5.9999H13.2L13.2 10.3028L11.6486 8.75137Z" fill="#111827"/>
<path d="M13.2 3.5999C13.2 2.93716 13.7373 2.3999 14.4 2.3999C15.0628 2.3999 15.6 2.93716 15.6 3.5999L15.6 5.9999H13.2L13.2 3.5999Z" fill="#111827"/>
<path d="M4.80002 10.7999C3.47454 10.7999 2.40002 11.8744 2.40002 13.1999V19.1999C2.40002 20.5254 3.47454 21.5999 4.80002 21.5999H14.4C15.7255 21.5999 16.8 20.5254 16.8 19.1999H4.80002V10.7999Z" fill="#111827"/>
</svg>
