<svg width="24" height="24" viewBox="0 0 24 24" fill="none" xmlns="http://www.w3.org/2000/svg">
<path fill-rule="evenodd" clip-rule="evenodd" d="M6.5999 2.3999C4.28031 2.3999 2.3999 4.28031 2.3999 6.5999C2.3999 8.9195 4.28031 10.7999 6.5999 10.7999C7.32321 10.7999 8.00382 10.6171 8.59802 10.2951L10.3029 11.9999L8.59808 13.7048C8.00386 13.3828 7.32324 13.1999 6.5999 13.1999C4.28031 13.1999 2.3999 15.0803 2.3999 17.3999C2.3999 19.7195 4.28031 21.5999 6.5999 21.5999C8.9195 21.5999 10.7999 19.7195 10.7999 17.3999C10.7999 16.6766 10.6171 15.996 10.2951 15.4018L20.0485 5.64843C20.5171 5.1798 20.5171 4.42 20.0485 3.95137C19.5799 3.48275 18.8201 3.48275 18.3515 3.95137L11.9999 10.3029L10.2951 8.59802C10.6171 8.00382 10.7999 7.32321 10.7999 6.5999C10.7999 4.28031 8.9195 2.3999 6.5999 2.3999ZM4.7999 6.5999C4.7999 5.60579 5.60579 4.7999 6.5999 4.7999C7.59401 4.7999 8.3999 5.60579 8.3999 6.5999C8.3999 7.59402 7.59401 8.3999 6.5999 8.3999C5.60579 8.3999 4.7999 7.59402 4.7999 6.5999ZM4.7999 17.3999C4.7999 16.4058 5.60579 15.5999 6.5999 15.5999C7.59401 15.5999 8.3999 16.4058 8.3999 17.3999C8.3999 18.394 7.59401 19.1999 6.5999 19.1999C5.60579 19.1999 4.7999 18.394 4.7999 17.3999Z" fill="#111827"/>
<path d="M15.394 13.697C14.9254 13.2283 14.1656 13.2283 13.697 13.697C13.2283 14.1656 13.2283 14.9254 13.697 15.394L18.3514 20.0484C18.82 20.5171 19.5798 20.5171 20.0484 20.0484C20.5171 19.5798 20.5171 18.82 20.0484 18.3514L15.394 13.697Z" fill="#111827"/>
</svg>
