<svg width="24" height="24" viewBox="0 0 24 24" fill="none" xmlns="http://www.w3.org/2000/svg">
<path d="M10.7999 10.7999C10.7999 9.47442 11.8744 8.3999 13.1999 8.3999C14.5254 8.3999 15.5999 9.47442 15.5999 10.7999C15.5999 12.1254 14.5254 13.1999 13.1999 13.1999C12.5368 13.1999 11.9385 12.9326 11.5028 12.497C11.0672 12.0613 10.7999 11.463 10.7999 10.7999Z" fill="#111827"/>
<path fill-rule="evenodd" clip-rule="evenodd" d="M11.9999 21.5999C17.3018 21.5999 21.5999 17.3018 21.5999 11.9999C21.5999 6.69797 17.3018 2.3999 11.9999 2.3999C6.69797 2.3999 2.3999 6.69797 2.3999 11.9999C2.3999 17.3018 6.69797 21.5999 11.9999 21.5999ZM13.1999 5.9999C10.5489 5.9999 8.3999 8.14894 8.3999 10.7999C8.3999 11.6896 8.64265 12.5236 9.06466 13.2381L6.35137 15.9514C5.88275 16.42 5.88275 17.1798 6.35137 17.6484C6.82 18.1171 7.5798 18.1171 8.04843 17.6484L10.7617 14.9351C11.4762 15.3572 12.3102 15.5999 13.1999 15.5999C15.8509 15.5999 17.9999 13.4509 17.9999 10.7999C17.9999 8.14894 15.8509 5.9999 13.1999 5.9999Z" fill="#111827"/>
</svg>
