<svg width="24" height="24" viewBox="0 0 24 24" fill="none" xmlns="http://www.w3.org/2000/svg">
<path fill-rule="evenodd" clip-rule="evenodd" d="M9.5999 4.7999C6.94894 4.7999 4.7999 6.94894 4.7999 9.5999C4.7999 12.2509 6.94894 14.3999 9.5999 14.3999C12.2509 14.3999 14.3999 12.2509 14.3999 9.5999C14.3999 6.94894 12.2509 4.7999 9.5999 4.7999ZM2.3999 9.5999C2.3999 5.62345 5.62345 2.3999 9.5999 2.3999C13.5764 2.3999 16.7999 5.62345 16.7999 9.5999C16.7999 11.1549 16.307 12.5948 15.4688 13.7717L20 18C20.4686 18.4686 20.4686 19.2284 20 19.6971C19.5314 20.1657 18.7716 20.1657 18.3029 19.6971L13.7717 15.4688C12.5948 16.307 11.1549 16.7999 9.5999 16.7999C5.62345 16.7999 2.3999 13.5764 2.3999 9.5999Z" fill="#111827"/>
</svg>
