<svg width="24" height="24" viewBox="0 0 24 24" fill="none" xmlns="http://www.w3.org/2000/svg">
<path fill-rule="evenodd" clip-rule="evenodd" d="M2.3999 6.0001C2.3999 4.67461 3.47442 3.6001 4.7999 3.6001H19.1999C20.5254 3.6001 21.5999 4.67461 21.5999 6.0001V8.4001C21.5999 9.72558 20.5254 10.8001 19.1999 10.8001H4.7999C3.47442 10.8001 2.3999 9.72558 2.3999 8.4001V6.0001ZM19.1999 7.2001C19.1999 7.86284 18.6626 8.4001 17.9999 8.4001C17.3372 8.4001 16.7999 7.86284 16.7999 7.2001C16.7999 6.53736 17.3372 6.0001 17.9999 6.0001C18.6626 6.0001 19.1999 6.53736 19.1999 7.2001Z" fill="#111827"/>
<path fill-rule="evenodd" clip-rule="evenodd" d="M2.3999 15.6001C2.3999 14.2746 3.47442 13.2001 4.7999 13.2001H19.1999C20.5254 13.2001 21.5999 14.2746 21.5999 15.6001V18.0001C21.5999 19.3256 20.5254 20.4001 19.1999 20.4001H4.7999C3.47442 20.4001 2.3999 19.3256 2.3999 18.0001V15.6001ZM19.1999 16.8001C19.1999 17.4628 18.6626 18.0001 17.9999 18.0001C17.3372 18.0001 16.7999 17.4628 16.7999 16.8001C16.7999 16.1374 17.3372 15.6001 17.9999 15.6001C18.6626 15.6001 19.1999 16.1374 19.1999 16.8001Z" fill="#111827"/>
</svg>
