<svg width="24" height="24" viewBox="0 0 24 24" fill="none" xmlns="http://www.w3.org/2000/svg">
<path fill-rule="evenodd" clip-rule="evenodd" d="M5.9999 2.3999C6.66264 2.3999 7.1999 2.93716 7.1999 3.5999V4.7999H8.3999C9.06264 4.7999 9.5999 5.33716 9.5999 5.9999C9.5999 6.66264 9.06264 7.1999 8.3999 7.1999H7.1999V8.3999C7.1999 9.06264 6.66264 9.5999 5.9999 9.5999C5.33716 9.5999 4.7999 9.06264 4.7999 8.3999V7.1999H3.5999C2.93716 7.1999 2.3999 6.66264 2.3999 5.9999C2.3999 5.33716 2.93716 4.7999 3.5999 4.7999H4.7999V3.5999C4.7999 2.93716 5.33716 2.3999 5.9999 2.3999ZM5.9999 14.3999C6.66264 14.3999 7.1999 14.9372 7.1999 15.5999V16.7999H8.3999C9.06264 16.7999 9.5999 17.3372 9.5999 17.9999C9.5999 18.6626 9.06264 19.1999 8.3999 19.1999H7.1999V20.3999C7.1999 21.0626 6.66264 21.5999 5.9999 21.5999C5.33716 21.5999 4.7999 21.0626 4.7999 20.3999V19.1999H3.5999C2.93716 19.1999 2.3999 18.6626 2.3999 17.9999C2.3999 17.3372 2.93716 16.7999 3.5999 16.7999H4.7999V15.5999C4.7999 14.9372 5.33716 14.3999 5.9999 14.3999Z" fill="#111827"/>
<path fill-rule="evenodd" clip-rule="evenodd" d="M14.3998 2.3999C14.9443 2.3999 15.4206 2.76648 15.5599 3.29283L16.9749 8.63862L20.9995 10.9605C21.371 11.1748 21.5998 11.571 21.5998 11.9999C21.5998 12.4288 21.371 12.825 20.9995 13.0393L16.9749 15.3612L15.5599 20.707C15.4206 21.2333 14.9443 21.5999 14.3998 21.5999C13.8554 21.5999 13.3791 21.2333 13.2398 20.707L11.8247 15.3612L7.80023 13.0393C7.42876 12.825 7.1999 12.4288 7.1999 11.9999C7.1999 11.571 7.42876 11.1748 7.80023 10.9605L11.8247 8.63862L13.2398 3.29283C13.3791 2.76648 13.8554 2.3999 14.3998 2.3999Z" fill="#111827"/>
</svg>
