<svg width="24" height="24" viewBox="0 0 24 24" fill="none" xmlns="http://www.w3.org/2000/svg">
<path d="M21.6 3.5999C21.6 3.18401 21.3847 2.79777 21.0309 2.57912C20.6771 2.36047 20.2354 2.3406 19.8634 2.52659L10.5167 7.1999H6.00002C4.0118 7.1999 2.40002 8.81168 2.40002 10.7999C2.40002 12.7881 4.0118 14.3999 6.00002 14.3999H6.33512L8.46161 20.7794C8.62495 21.2694 9.08352 21.5999 9.60003 21.5999H10.8C11.4628 21.5999 12 21.0626 12 20.3999V15.1416L19.8634 19.0732C20.2354 19.2592 20.6771 19.2393 21.0309 19.0207C21.3847 18.802 21.6 18.4158 21.6 17.9999V3.5999Z" fill="#111827"/>
</svg>
