<svg width="24" height="24" viewBox="0 0 24 24" fill="none" xmlns="http://www.w3.org/2000/svg">
<path fill-rule="evenodd" clip-rule="evenodd" d="M21.5999 11.9999C21.5999 17.3018 17.3018 21.5999 11.9999 21.5999C6.69797 21.5999 2.3999 17.3018 2.3999 11.9999C2.3999 6.69797 6.69797 2.3999 11.9999 2.3999C17.3018 2.3999 21.5999 6.69797 21.5999 11.9999ZM19.1999 11.9999C19.1999 13.191 18.9107 14.3146 18.3986 15.3042L16.5691 13.4747C16.7189 13.0101 16.7999 12.5144 16.7999 11.9999C16.7999 11.6055 16.7523 11.2223 16.6626 10.8556L18.538 8.98022C18.9628 9.89856 19.1999 10.9215 19.1999 11.9999ZM13.0014 16.6953L14.8987 18.5926C14.0118 18.9831 13.0312 19.1999 11.9999 19.1999C10.9215 19.1999 9.89856 18.9628 8.98022 18.538L10.8556 16.6626C11.2223 16.7523 11.6055 16.7999 11.9999 16.7999C12.3433 16.7999 12.6784 16.7638 13.0014 16.6953ZM7.38958 13.3404C7.2661 12.915 7.1999 12.4652 7.1999 11.9999C7.1999 11.6016 7.24842 11.2146 7.33986 10.8446L7.24527 10.9392L5.40724 9.10113C5.01671 9.98802 4.7999 10.9686 4.7999 11.9999C4.7999 13.1445 5.067 14.2268 5.54227 15.1877L7.38958 13.3404ZM8.69557 5.60123C9.68519 5.08915 10.8088 4.7999 11.9999 4.7999C13.1445 4.7999 14.2268 5.067 15.1877 5.54227L13.3404 7.38958C12.915 7.2661 12.4652 7.1999 11.9999 7.1999C11.4854 7.1999 10.9897 7.28086 10.5251 7.43074L8.69557 5.60123ZM14.3999 11.9999C14.3999 13.3254 13.3254 14.3999 11.9999 14.3999C10.6744 14.3999 9.5999 13.3254 9.5999 11.9999C9.5999 10.6744 10.6744 9.5999 11.9999 9.5999C13.3254 9.5999 14.3999 10.6744 14.3999 11.9999Z" fill="#111827"/>
</svg>
