<svg width="24" height="24" viewBox="0 0 24 24" fill="none" xmlns="http://www.w3.org/2000/svg">
<path d="M3.6001 4.8001C3.6001 4.13736 4.13736 3.6001 4.8001 3.6001H19.2001C19.8628 3.6001 20.4001 4.13736 20.4001 4.8001V7.2001C20.4001 7.86284 19.8628 8.4001 19.2001 8.4001H4.8001C4.13736 8.4001 3.6001 7.86284 3.6001 7.2001V4.8001Z" fill="#111827"/>
<path d="M3.6001 12.0001C3.6001 11.3374 4.13736 10.8001 4.8001 10.8001H12.0001C12.6628 10.8001 13.2001 11.3374 13.2001 12.0001V19.2001C13.2001 19.8628 12.6628 20.4001 12.0001 20.4001H4.8001C4.13736 20.4001 3.6001 19.8628 3.6001 19.2001V12.0001Z" fill="#111827"/>
<path d="M16.8001 10.8001C16.1374 10.8001 15.6001 11.3374 15.6001 12.0001V19.2001C15.6001 19.8628 16.1374 20.4001 16.8001 20.4001H19.2001C19.8628 20.4001 20.4001 19.8628 20.4001 19.2001V12.0001C20.4001 11.3374 19.8628 10.8001 19.2001 10.8001H16.8001Z" fill="#111827"/>
</svg>
