<svg width="24" height="24" viewBox="0 0 24 24" fill="none" xmlns="http://www.w3.org/2000/svg">
<path fill-rule="evenodd" clip-rule="evenodd" d="M2.3999 6.0001C2.3999 4.67461 3.47442 3.6001 4.7999 3.6001H19.1999C20.5254 3.6001 21.5999 4.67461 21.5999 6.0001V18.0001C21.5999 19.3256 20.5254 20.4001 19.1999 20.4001H4.7999C3.47442 20.4001 2.3999 19.3256 2.3999 18.0001V6.0001ZM6.35137 7.55157C6.82 7.08294 7.5798 7.08294 8.04843 7.55157L11.6484 11.1516C12.1171 11.6202 12.1171 12.38 11.6484 12.8486L8.04843 16.4486C7.5798 16.9173 6.82 16.9173 6.35137 16.4486C5.88275 15.98 5.88275 15.2202 6.35137 14.7516L9.10285 12.0001L6.35137 9.24863C5.88275 8.78 5.88275 8.0202 6.35137 7.55157ZM13.1999 14.4001C12.5372 14.4001 11.9999 14.9374 11.9999 15.6001C11.9999 16.2628 12.5372 16.8001 13.1999 16.8001H16.7999C17.4626 16.8001 17.9999 16.2628 17.9999 15.6001C17.9999 14.9374 17.4626 14.4001 16.7999 14.4001H13.1999Z" fill="#111827"/>
</svg>
