<svg width="24" height="24" viewBox="0 0 24 24" fill="none" xmlns="http://www.w3.org/2000/svg">
<path d="M2.40002 12.5999C2.40002 11.6058 3.20591 10.7999 4.20002 10.7999C5.19414 10.7999 6.00002 11.6058 6.00002 12.5999V19.7999C6.00002 20.794 5.19414 21.5999 4.20002 21.5999C3.20591 21.5999 2.40002 20.794 2.40002 19.7999V12.5999Z" fill="#111827"/>
<path d="M7.20002 12.3999V18.9166C7.20002 19.8257 7.71363 20.6567 8.52671 21.0632L8.58653 21.0932C9.25303 21.4264 9.98797 21.5999 10.7332 21.5999H17.2325C18.3765 21.5999 19.3615 20.7924 19.5859 19.6706L21.0259 12.4706C21.3229 10.9855 20.187 9.5999 18.6725 9.5999H14.4V4.7999C14.4 3.47442 13.3255 2.3999 12 2.3999C11.3373 2.3999 10.8 2.93716 10.8 3.5999V4.3999C10.8 5.43848 10.4632 6.44904 9.84002 7.2799L8.16002 9.5199C7.53688 10.3508 7.20002 11.3613 7.20002 12.3999Z" fill="#111827"/>
</svg>
