<svg width="24" height="24" viewBox="0 0 24 24" fill="none" xmlns="http://www.w3.org/2000/svg">
<path d="M5.57823 3.70029C6.18553 3.96563 6.46275 4.67305 6.19741 5.28036C5.29901 7.33657 4.80002 9.60839 4.80002 11.9999C4.80002 14.3914 5.29901 16.6633 6.19741 18.7195C6.46275 19.3268 6.18553 20.0342 5.57823 20.2995C4.97092 20.5649 4.2635 20.2877 3.99816 19.6804C2.96986 17.3268 2.40002 14.7283 2.40002 11.9999C2.40002 9.27148 2.96986 6.67299 3.99816 4.31947C4.2635 3.71216 4.97092 3.43495 5.57823 3.70029Z" fill="#111827"/>
<path d="M15.5535 8.3999C14.4599 8.3999 13.4256 8.89703 12.7424 9.751L12.3494 10.2422L12.2159 9.90856C11.8515 8.99738 10.969 8.3999 9.98759 8.3999H9.60002C8.93728 8.3999 8.40002 8.93716 8.40002 9.5999C8.40002 10.2626 8.93728 10.7999 9.60002 10.7999H9.98759L10.6261 12.3963L9.38357 13.9495C9.15584 14.2342 8.81107 14.3999 8.44653 14.3999H8.40002C7.73728 14.3999 7.20002 14.9372 7.20002 15.5999C7.20002 16.2626 7.73728 16.7999 8.40002 16.7999H8.44653C9.54015 16.7999 10.5745 16.3028 11.2577 15.4488L11.6506 14.9576L11.7841 15.2912C12.1486 16.2024 13.0311 16.7999 14.0125 16.7999H14.4C15.0628 16.7999 15.6 16.2626 15.6 15.5999C15.6 14.9372 15.0628 14.3999 14.4 14.3999H14.0125L13.3739 12.8035L14.6165 11.2503C14.8442 10.9656 15.189 10.7999 15.5535 10.7999H15.6C16.2628 10.7999 16.8 10.2626 16.8 9.5999C16.8 8.93716 16.2628 8.3999 15.6 8.3999H15.5535Z" fill="#111827"/>
<path d="M17.8026 5.28036C17.5373 4.67305 17.8145 3.96563 18.4218 3.70029C19.0291 3.43495 19.7365 3.71216 20.0019 4.31947C21.0302 6.67299 21.6 9.27148 21.6 11.9999C21.6 14.7283 21.0302 17.3268 20.0019 19.6804C19.7365 20.2877 19.0291 20.5649 18.4218 20.2995C17.8145 20.0342 17.5373 19.3268 17.8026 18.7195C18.701 16.6633 19.2 14.3914 19.2 11.9999C19.2 9.60839 18.701 7.33657 17.8026 5.28036Z" fill="#111827"/>
</svg>
