<svg width="25" height="24" viewBox="0 0 25 24" fill="none" xmlns="http://www.w3.org/2000/svg">
<path d="M4.52808 4V3H3.52808V4H4.52808ZM20.5281 4H21.5281V3H20.5281V4ZM6.82097 11.2929C6.43045 11.6834 6.43045 12.3166 6.82097 12.7071C7.21149 13.0976 7.84466 13.0976 8.23518 12.7071L6.82097 11.2929ZM10.5281 9L11.2352 8.29289C10.8447 7.90237 10.2115 7.90237 9.82097 8.29289L10.5281 9ZM13.5281 12L12.821 12.7071C13.2115 13.0976 13.8447 13.0976 14.2352 12.7071L13.5281 12ZM18.2352 8.70711C18.6257 8.31658 18.6257 7.68342 18.2352 7.29289C17.8447 6.90237 17.2115 6.90237 16.821 7.29289L18.2352 8.70711ZM7.82097 20.2929C7.43045 20.6834 7.43045 21.3166 7.82097 21.7071C8.21149 22.0976 8.84466 22.0976 9.23518 21.7071L7.82097 20.2929ZM12.5281 17L13.2352 16.2929C12.8447 15.9024 12.2115 15.9024 11.821 16.2929L12.5281 17ZM15.821 21.7071C16.2115 22.0976 16.8447 22.0976 17.2352 21.7071C17.6257 21.3166 17.6257 20.6834 17.2352 20.2929L15.821 21.7071ZM3.52808 3C2.97579 3 2.52808 3.44772 2.52808 4C2.52808 4.55228 2.97579 5 3.52808 5V3ZM21.5281 5C22.0804 5 22.5281 4.55228 22.5281 4C22.5281 3.44772 22.0804 3 21.5281 3V5ZM4.52808 5H20.5281V3H4.52808V5ZM19.5281 4V16H21.5281V4H19.5281ZM19.5281 16H5.52808V18H19.5281V16ZM5.52808 16V4H3.52808V16H5.52808ZM5.52808 16H3.52808C3.52808 17.1046 4.42351 18 5.52808 18V16ZM19.5281 16V18C20.6326 18 21.5281 17.1046 21.5281 16H19.5281ZM8.23518 12.7071L11.2352 9.70711L9.82097 8.29289L6.82097 11.2929L8.23518 12.7071ZM9.82097 9.70711L12.821 12.7071L14.2352 11.2929L11.2352 8.29289L9.82097 9.70711ZM14.2352 12.7071L18.2352 8.70711L16.821 7.29289L12.821 11.2929L14.2352 12.7071ZM9.23518 21.7071L13.2352 17.7071L11.821 16.2929L7.82097 20.2929L9.23518 21.7071ZM11.821 17.7071L15.821 21.7071L17.2352 20.2929L13.2352 16.2929L11.821 17.7071ZM3.52808 5H21.5281V3H3.52808V5Z" fill="black"/>
</svg>
