<svg width="24" height="24" viewBox="0 0 24 24" fill="none" xmlns="http://www.w3.org/2000/svg">
<path d="M5.9999 4.79998C5.9999 4.13723 5.46264 3.59998 4.7999 3.59998C4.13716 3.59998 3.5999 4.13723 3.5999 4.79998V13.5211C2.88254 13.936 2.3999 14.7116 2.3999 15.6C2.3999 16.4883 2.88254 17.2639 3.5999 17.6789V19.2C3.5999 19.8627 4.13716 20.4 4.7999 20.4C5.46264 20.4 5.9999 19.8627 5.9999 19.2V17.6789C6.71726 17.2639 7.1999 16.4883 7.1999 15.6C7.1999 14.7116 6.71726 13.936 5.9999 13.5211V4.79998Z" fill="black"/>
<path d="M13.1999 4.79998C13.1999 4.13723 12.6626 3.59998 11.9999 3.59998C11.3372 3.59998 10.7999 4.13723 10.7999 4.79998V6.32105C10.0825 6.73602 9.5999 7.51164 9.5999 8.39998C9.5999 9.28831 10.0825 10.0639 10.7999 10.4789V19.2C10.7999 19.8627 11.3372 20.4 11.9999 20.4C12.6626 20.4 13.1999 19.8627 13.1999 19.2V10.4789C13.9173 10.0639 14.3999 9.28831 14.3999 8.39998C14.3999 7.51164 13.9173 6.73602 13.1999 6.32105V4.79998Z" fill="black"/>
<path d="M19.1999 3.59998C19.8626 3.59998 20.3999 4.13723 20.3999 4.79998V13.5211C21.1173 13.936 21.5999 14.7116 21.5999 15.6C21.5999 16.4883 21.1173 17.2639 20.3999 17.6789V19.2C20.3999 19.8627 19.8626 20.4 19.1999 20.4C18.5372 20.4 17.9999 19.8627 17.9999 19.2V17.6789C17.2825 17.2639 16.7999 16.4883 16.7999 15.6C16.7999 14.7116 17.2825 13.936 17.9999 13.5211V4.79998C17.9999 4.13723 18.5372 3.59998 19.1999 3.59998Z" fill="black"/>
</svg>
