<svg width="24" height="24" viewBox="0 0 24 24" fill="none" xmlns="http://www.w3.org/2000/svg">
<path d="M4.7999 3.59998C3.47442 3.59998 2.3999 4.67449 2.3999 5.99998C2.3999 7.32546 3.47442 8.39998 4.7999 8.39998H19.1999C20.5254 8.39998 21.5999 7.32546 21.5999 5.99998C21.5999 4.67449 20.5254 3.59998 19.1999 3.59998H4.7999Z" fill="black"/>
<path fill-rule="evenodd" clip-rule="evenodd" d="M3.5999 9.59998H20.3999V18C20.3999 19.3255 19.3254 20.4 17.9999 20.4H5.9999C4.67442 20.4 3.5999 19.3255 3.5999 18V9.59998ZM9.5999 13.2C9.5999 12.5372 10.1372 12 10.7999 12H13.1999C13.8626 12 14.3999 12.5372 14.3999 13.2C14.3999 13.8627 13.8626 14.4 13.1999 14.4H10.7999C10.1372 14.4 9.5999 13.8627 9.5999 13.2Z" fill="black"/>
</svg>
