<svg width="24" height="24" viewBox="0 0 24 24" fill="none" xmlns="http://www.w3.org/2000/svg">
<path fill-rule="evenodd" clip-rule="evenodd" d="M7.1999 7.20002V6.00002C7.1999 4.0118 8.81168 2.40002 10.7999 2.40002H13.1999C15.1881 2.40002 16.7999 4.0118 16.7999 6.00002V7.20002H19.1999C20.5254 7.20002 21.5999 8.27454 21.5999 9.60002V13.8849C18.6115 14.9937 15.3778 15.6 11.9999 15.6C8.62208 15.6 5.38834 14.9937 2.3999 13.8849V9.60002C2.3999 8.27454 3.47442 7.20002 4.7999 7.20002H7.1999ZM9.5999 6.00002C9.5999 5.33728 10.1372 4.80002 10.7999 4.80002H13.1999C13.8626 4.80002 14.3999 5.33728 14.3999 6.00002V7.20002H9.5999V6.00002ZM10.7999 12C10.7999 11.3373 11.3372 10.8 11.9999 10.8H12.0119C12.6746 10.8 13.2119 11.3373 13.2119 12C13.2119 12.6628 12.6746 13.2 12.0119 13.2H11.9999C11.3372 13.2 10.7999 12.6628 10.7999 12Z" fill="black"/>
<path d="M2.3999 16.4307V19.2C2.3999 20.5255 3.47442 21.6 4.7999 21.6H19.1999C20.5254 21.6 21.5999 20.5255 21.5999 19.2V16.4308C18.5846 17.4486 15.3556 18 11.9999 18C8.64426 18 5.41526 17.4486 2.3999 16.4307Z" fill="black"/>
</svg>
