<svg width="24" height="24" viewBox="0 0 24 24" fill="none" xmlns="http://www.w3.org/2000/svg">
<path d="M4.80002 4.80005C3.47454 4.80005 2.40002 5.87457 2.40002 7.20005V12C2.40002 13.3255 3.47454 14.4 4.80002 14.4L4.80002 7.20005H16.8C16.8 5.87457 15.7255 4.80005 14.4 4.80005H4.80002Z" fill="black"/>
<path fill-rule="evenodd" clip-rule="evenodd" d="M7.20002 12C7.20002 10.6746 8.27454 9.60005 9.60002 9.60005H19.2C20.5255 9.60005 21.6 10.6746 21.6 12V16.8C21.6 18.1255 20.5255 19.2 19.2 19.2H9.60002C8.27454 19.2 7.20002 18.1255 7.20002 16.8V12ZM14.4 16.8C15.7255 16.8 16.8 15.7255 16.8 14.4C16.8 13.0746 15.7255 12 14.4 12C13.0745 12 12 13.0746 12 14.4C12 15.7255 13.0745 16.8 14.4 16.8Z" fill="black"/>
</svg>
