<svg width="24" height="24" viewBox="0 0 24 24" fill="none" xmlns="http://www.w3.org/2000/svg">
<path d="M6.5999 15.6C4.28031 15.6 2.3999 13.7195 2.3999 11.4C2.3999 9.2299 4.04566 7.44424 6.15712 7.22301C6.05453 6.83254 5.9999 6.42262 5.9999 5.99995C5.9999 3.34898 8.14894 1.19995 10.7999 1.19995C13.0545 1.19995 14.9461 2.7544 15.4613 4.85005C15.7028 4.81702 15.9493 4.79995 16.1999 4.79995C19.1822 4.79995 21.5999 7.21761 21.5999 10.2C21.5999 13.1823 19.1822 15.6 16.1999 15.6H13.1999V11.297L14.7514 12.8485C15.22 13.3171 15.9798 13.3171 16.4484 12.8485C16.9171 12.3798 16.9171 11.6201 16.4484 11.1514L12.8484 7.55142C12.3798 7.08279 11.62 7.08279 11.1514 7.55142L7.55138 11.1514C7.08275 11.6201 7.08275 12.3798 7.55138 12.8485C8.02 13.3171 8.7798 13.3171 9.24843 12.8485L10.7999 11.297L10.7999 15.6H6.5999Z" fill="black"/>
<path d="M10.7999 15.6H13.1999L13.1999 21.6C13.1999 22.2627 12.6626 22.7999 11.9999 22.7999C11.3372 22.7999 10.7999 22.2627 10.7999 21.6V15.6Z" fill="black"/>
</svg>
