<svg width="24" height="24" viewBox="0 0 24 24" fill="none" xmlns="http://www.w3.org/2000/svg">
<path fill-rule="evenodd" clip-rule="evenodd" d="M2.40002 11.4C2.40002 13.7195 4.28043 15.6 6.60002 15.6H10.8V18.7029L9.24855 17.1514C8.77992 16.6828 8.02013 16.6828 7.5515 17.1514C7.08287 17.6201 7.08287 18.3798 7.5515 18.8485L11.1515 22.4485C11.6201 22.9171 12.3799 22.9171 12.8486 22.4485L16.4486 18.8485C16.9172 18.3798 16.9172 17.6201 16.4486 17.1514C15.9799 16.6828 15.2201 16.6828 14.7515 17.1514L13.2 18.7029V15.6H16.2C19.1824 15.6 21.6 13.1823 21.6 10.2C21.6 7.21761 19.1824 4.79995 16.2 4.79995C15.9495 4.79995 15.7029 4.81702 15.4614 4.85005C14.9462 2.7544 13.0546 1.19995 10.8 1.19995C8.14906 1.19995 6.00002 3.34898 6.00002 5.99995C6.00002 6.42262 6.05466 6.83254 6.15724 7.22301C4.04578 7.44424 2.40002 9.2299 2.40002 11.4ZM13.2 15.6H10.8V9.59995C10.8 8.93721 11.3373 8.39995 12 8.39995C12.6628 8.39995 13.2 8.93721 13.2 9.59995V15.6Z" fill="black"/>
</svg>
