<svg width="24" height="24" viewBox="0 0 24 24" fill="none" xmlns="http://www.w3.org/2000/svg">
<path d="M10.8001 2.40002C9.47461 2.40002 8.4001 3.47454 8.4001 4.80002V14.4C8.4001 15.7255 9.47461 16.8 10.8001 16.8H18.0001C19.3256 16.8 20.4001 15.7255 20.4001 14.4V7.69708C20.4001 7.06056 20.1472 6.45011 19.6972 6.00002L16.8001 3.10297C16.35 2.65288 15.7396 2.40002 15.103 2.40002H10.8001Z" fill="black"/>
<path d="M3.6001 9.60003C3.6001 8.27454 4.67461 7.20002 6.0001 7.20002V19.2H15.6001C15.6001 20.5255 14.5256 21.6 13.2001 21.6H6.0001C4.67461 21.6 3.6001 20.5255 3.6001 19.2V9.60003Z" fill="black"/>
</svg>
