<svg width="24" height="24" viewBox="0 0 24 24" fill="none" xmlns="http://www.w3.org/2000/svg">
<path fill-rule="evenodd" clip-rule="evenodd" d="M7.20005 2.40002C5.87457 2.40002 4.80005 3.47454 4.80005 4.80002V19.2C4.80005 20.5255 5.87456 21.6 7.20005 21.6H16.8C18.1255 21.6 19.2 20.5255 19.2 19.2V8.89708C19.2 8.26056 18.9472 7.65011 18.4971 7.20002L14.4 3.10297C13.95 2.65288 13.3395 2.40002 12.703 2.40002H7.20005ZM13.2 9.60002C13.2 8.93728 12.6628 8.40002 12 8.40002C11.3373 8.40002 10.8 8.93728 10.8 9.60002V13.903L9.24858 12.3515C8.77995 11.8829 8.02015 11.8829 7.55152 12.3515C7.08289 12.8201 7.08289 13.5799 7.55152 14.0486L11.1515 17.6486C11.6202 18.1172 12.3799 18.1172 12.8486 17.6486L16.4486 14.0486C16.9172 13.5799 16.9172 12.8201 16.4486 12.3515C15.9799 11.8829 15.2201 11.8829 14.7515 12.3515L13.2 13.903V9.60002Z" fill="black"/>
</svg>
