<svg width="24" height="24" viewBox="0 0 24 24" fill="none" xmlns="http://www.w3.org/2000/svg">
<path fill-rule="evenodd" clip-rule="evenodd" d="M4.44848 2.7515C3.97985 2.28287 3.22005 2.28287 2.75142 2.7515C2.28279 3.22013 2.28279 3.97992 2.75142 4.44855L19.5514 21.2486C20.0201 21.7172 20.7798 21.7172 21.2485 21.2486C21.7171 20.7799 21.7171 20.0201 21.2485 19.5515L19.4807 17.7837C21.3257 16.3109 22.7268 14.3053 23.4508 12C21.9217 7.13148 17.3734 3.60002 12.0002 3.60002C10.0519 3.60002 8.21208 4.06433 6.5853 4.88832L4.44848 2.7515ZM9.5617 7.86472L11.3784 9.68138C11.5767 9.62832 11.7852 9.60002 12.0003 9.60002C13.3257 9.60002 14.4003 10.6745 14.4003 12C14.4003 12.2151 14.372 12.4236 14.3189 12.6219L16.1356 14.4386C16.5579 13.7239 16.8003 12.8903 16.8003 12C16.8003 9.34906 14.6512 7.20002 12.0003 7.20002C11.11 7.20002 10.2764 7.44238 9.5617 7.86472Z" fill="black"/>
<path d="M14.9449 20.0361L11.6995 16.7908C9.28811 16.6417 7.35859 14.7122 7.20952 12.3007L2.80186 7.89308C1.80071 9.0867 1.02759 10.478 0.549561 12.0001C2.07869 16.8686 6.62703 20.4 12.0002 20.4C13.0162 20.4 14.0027 20.2738 14.9449 20.0361Z" fill="black"/>
</svg>
