<svg width="24" height="24" viewBox="0 0 24 24" fill="none" xmlns="http://www.w3.org/2000/svg">
<path fill-rule="evenodd" clip-rule="evenodd" d="M11.9999 21.6C17.3018 21.6 21.5999 17.302 21.5999 12C21.5999 6.69809 17.3018 2.40002 11.9999 2.40002C6.69797 2.40002 2.3999 6.69809 2.3999 12C2.3999 17.302 6.69797 21.6 11.9999 21.6ZM5.19805 9.63291C5.64641 8.34435 6.4506 7.22239 7.49295 6.38469C7.81441 6.87562 8.3693 7.19992 8.99992 7.19992C9.99403 7.19992 10.7999 8.0058 10.7999 8.99992V9.59992C10.7999 10.9254 11.8744 11.9999 13.1999 11.9999C14.5254 11.9999 15.5999 10.9254 15.5999 9.59992C15.5999 8.47178 16.3783 7.52543 17.4273 7.26865C18.5312 8.53396 19.1999 10.1889 19.1999 11.9999C19.1999 12.4089 19.1658 12.8098 19.1003 13.2001H17.9999C16.6744 13.2001 15.5999 14.2747 15.5999 15.6001V18.2367C14.5409 18.8493 13.3112 19.1999 11.9998 19.1999V16.8C11.9998 15.4745 10.9253 14.4 9.5998 14.4C8.27432 14.4 7.1998 13.3255 7.1998 12C7.1998 10.8102 6.334 9.82262 5.19805 9.63291Z" fill="black"/>
</svg>
