<svg width="24" height="24" viewBox="0 0 24 24" fill="none" xmlns="http://www.w3.org/2000/svg">
<path fill-rule="evenodd" clip-rule="evenodd" d="M4.89957 10.8H7.23438C7.34143 8.94435 7.69476 7.23491 8.23975 5.85876C6.50104 6.92564 5.25018 8.7102 4.89957 10.8ZM12 2.40002C6.69809 2.40002 2.40002 6.69809 2.40002 12C2.40002 17.302 6.69809 21.6 12 21.6C17.302 21.6 21.6 17.302 21.6 12C21.6 6.69809 17.302 2.40002 12 2.40002ZM12 4.80002C11.9088 4.80002 11.7215 4.83809 11.4417 5.11424C11.1567 5.39547 10.845 5.86191 10.5574 6.53303C10.091 7.62135 9.74991 9.10273 9.63887 10.8H14.3612C14.2501 9.10273 13.9091 7.62135 13.4426 6.53303C13.155 5.86191 12.8433 5.39547 12.5584 5.11424C12.2786 4.83809 12.0913 4.80002 12 4.80002ZM16.7657 10.8C16.6586 8.94435 16.3053 7.23491 15.7603 5.85876C17.499 6.92564 18.7499 8.7102 19.1005 10.8H16.7657ZM14.3612 13.2H9.63887C9.74991 14.8973 10.091 16.3787 10.5574 17.467C10.845 18.1381 11.1567 18.6046 11.4417 18.8858C11.7215 19.162 11.9088 19.2 12 19.2C12.0913 19.2 12.2786 19.162 12.5584 18.8858C12.8433 18.6046 13.155 18.1381 13.4426 17.467C13.9091 16.3787 14.2501 14.8973 14.3612 13.2ZM15.7603 18.1413C16.3053 16.7651 16.6586 15.0557 16.7657 13.2H19.1005C18.7499 15.2899 17.499 17.0744 15.7603 18.1413ZM8.23975 18.1413C7.69476 16.7651 7.34143 15.0557 7.23438 13.2H4.89957C5.25018 15.2899 6.50105 17.0744 8.23975 18.1413Z" fill="black"/>
</svg>
