<svg width="24" height="24" viewBox="0 0 24 24" fill="none" xmlns="http://www.w3.org/2000/svg">
<path fill-rule="evenodd" clip-rule="evenodd" d="M3.6001 6.00002C3.6001 4.67454 4.67461 3.60002 6.0001 3.60002H7.2001C7.86284 3.60002 8.4001 4.13728 8.4001 4.80002C8.4001 5.46277 7.86284 6.00002 7.2001 6.00002L6.0001 6.00002V18H18.0001V6.00002H16.8001C16.1374 6.00002 15.6001 5.46277 15.6001 4.80002C15.6001 4.13728 16.1374 3.60002 16.8001 3.60002H18.0001C19.3256 3.60002 20.4001 4.67454 20.4001 6.00002V18C20.4001 19.3255 19.3256 20.4 18.0001 20.4H6.0001C4.67461 20.4 3.6001 19.3255 3.6001 18V6.00002Z" fill="black"/>
<path d="M4.8001 14.4H8.4001L9.6001 16.8H14.4001L15.6001 14.4H19.2001V19.2H4.8001V14.4Z" fill="black"/>
<path d="M8.75157 8.7515C9.2202 8.28287 9.98 8.28287 10.4486 8.7515L10.8001 9.10297V3.60002C10.8001 2.93728 11.3374 2.40002 12.0001 2.40002C12.6628 2.40002 13.2001 2.93728 13.2001 3.60002V9.10297L13.5516 8.7515C14.0202 8.28287 14.78 8.28287 15.2486 8.7515C15.7173 9.22013 15.7173 9.97992 15.2486 10.4486L12.8486 12.8486C12.6236 13.0736 12.3184 13.2 12.0001 13.2C11.6818 13.2 11.3766 13.0736 11.1516 12.8486L8.75157 10.4486C8.28294 9.97992 8.28294 9.22012 8.75157 8.7515Z" fill="black"/>
</svg>
