<svg width="24" height="24" viewBox="0 0 24 24" fill="none" xmlns="http://www.w3.org/2000/svg">
<path d="M15.1028 5.50297C16.0401 4.56571 17.5597 4.56571 18.4969 5.50297C19.4342 6.44023 19.4342 7.95982 18.4969 8.89708L14.8969 12.4971C13.9597 13.4343 12.4401 13.4343 11.5028 12.4971C11.0342 12.0285 10.2744 12.0285 9.80577 12.4971C9.33714 12.9657 9.33714 13.7255 9.80577 14.1941C11.6803 16.0687 14.7195 16.0687 16.594 14.1941L20.194 10.5941C22.0685 8.71962 22.0685 5.68043 20.194 3.80591C18.3195 1.9314 15.2803 1.9314 13.4058 3.80591L11.6058 5.60591C11.1371 6.07454 11.1371 6.83434 11.6058 7.30297C12.0744 7.7716 12.8342 7.7716 13.3028 7.30297L15.1028 5.50297Z" fill="black"/>
<path d="M9.10285 11.503C10.0401 10.5657 11.5597 10.5657 12.497 11.503C12.9656 11.9716 13.7254 11.9716 14.194 11.503C14.6626 11.0343 14.6626 10.2745 14.194 9.80591C12.3195 7.9314 9.2803 7.9314 7.40579 9.80591L3.80579 13.4059C1.93127 15.2804 1.93127 18.3196 3.80579 20.1941C5.68031 22.0687 8.7195 22.0687 10.594 20.1941L12.394 18.3941C12.8626 17.9255 12.8626 17.1657 12.394 16.6971C11.9254 16.2285 11.1656 16.2285 10.697 16.6971L8.89696 18.4971C7.9597 19.4343 6.4401 19.4343 5.50285 18.4971C4.56559 17.5598 4.56559 16.0402 5.50285 15.103L9.10285 11.503Z" fill="black"/>
</svg>
