<svg width="24" height="24" viewBox="0 0 24 24" fill="none" xmlns="http://www.w3.org/2000/svg">
<path fill-rule="evenodd" clip-rule="evenodd" d="M6.0001 10.8V8.40002C6.0001 5.08632 8.68639 2.40002 12.0001 2.40002C15.3138 2.40002 18.0001 5.08632 18.0001 8.40002V10.8C19.3256 10.8 20.4001 11.8745 20.4001 13.2V19.2C20.4001 20.5255 19.3256 21.6 18.0001 21.6H6.0001C4.67461 21.6 3.6001 20.5255 3.6001 19.2V13.2C3.6001 11.8745 4.67461 10.8 6.0001 10.8ZM15.6001 8.40002V10.8H8.4001V8.40002C8.4001 6.4118 10.0119 4.80002 12.0001 4.80002C13.9883 4.80002 15.6001 6.4118 15.6001 8.40002Z" fill="black"/>
</svg>
