<svg width="24" height="24" viewBox="0 0 24 24" fill="none" xmlns="http://www.w3.org/2000/svg">
<path fill-rule="evenodd" clip-rule="evenodd" d="M14.3999 1.90295L9.5999 6.70295V22.0971L14.3999 17.2971V1.90295Z" fill="black"/>
<path fill-rule="evenodd" clip-rule="evenodd" d="M4.44843 3.95148C4.10523 3.60828 3.58909 3.50562 3.14068 3.69136C2.69227 3.87709 2.3999 4.31466 2.3999 4.80001V16.8C2.3999 17.1183 2.52633 17.4235 2.75137 17.6485L7.1999 22.0971V6.70295L4.44843 3.95148Z" fill="black"/>
<path fill-rule="evenodd" clip-rule="evenodd" d="M21.2484 6.35148L16.7999 1.90295V17.2971L19.5514 20.0485C19.8946 20.3917 20.4107 20.4944 20.8591 20.3087C21.3075 20.1229 21.5999 19.6854 21.5999 19.2V7.20001C21.5999 6.88175 21.4735 6.57653 21.2484 6.35148Z" fill="black"/>
</svg>
