<svg width="24" height="24" viewBox="0 0 24 24" fill="none" xmlns="http://www.w3.org/2000/svg">
<path d="M17.297 8.40002L21.2484 4.44855C21.7171 3.97992 21.7171 3.22013 21.2484 2.7515C20.7798 2.28287 20.02 2.28287 19.5514 2.7515L15.5999 6.70297V4.80002C15.5999 4.13728 15.0626 3.60002 14.3999 3.60002C13.7372 3.60002 13.1999 4.13728 13.1999 4.80002V9.59919C13.1999 9.60039 13.1999 9.60242 13.1999 9.60362C13.2004 9.76502 13.2327 9.91892 13.291 10.0594C13.3482 10.1977 13.4324 10.3275 13.5436 10.4407C13.5488 10.446 13.554 10.4512 13.5592 10.4564C13.6725 10.5675 13.8022 10.6517 13.9406 10.709C14.0821 10.7676 14.2372 10.8 14.3999 10.8H19.1999C19.8626 10.8 20.3999 10.2628 20.3999 9.60002C20.3999 8.93728 19.8626 8.40002 19.1999 8.40002H17.297Z" fill="black"/>
<path d="M2.3999 3.60002C2.3999 2.93728 2.93716 2.40002 3.5999 2.40002H6.18335C6.76996 2.40002 7.27059 2.82412 7.36702 3.40275L8.2542 8.72579C8.3408 9.24543 8.07837 9.76079 7.60718 9.99639L5.74941 10.9253C7.08897 14.254 9.74592 16.911 13.0747 18.2505L14.0035 16.3927C14.2391 15.9216 14.7545 15.6591 15.2741 15.7457L20.5972 16.6329C21.1758 16.7293 21.5999 17.23 21.5999 17.8166V20.4C21.5999 21.0628 21.0626 21.6 20.3999 21.6H17.9999C9.38426 21.6 2.3999 14.6157 2.3999 6.00002V3.60002Z" fill="black"/>
</svg>
