<svg width="24" height="24" viewBox="0 0 24 24" fill="none" xmlns="http://www.w3.org/2000/svg">
<path d="M21.5088 3.14068C21.4507 3.00019 21.3648 2.8685 21.251 2.75404C21.2493 2.75234 21.2476 2.75065 21.2459 2.74896C21.0289 2.53329 20.73 2.40002 20.3999 2.40002H15.5999C14.9372 2.40002 14.3999 2.93728 14.3999 3.60002C14.3999 4.26277 14.9372 4.80002 15.5999 4.80002H17.5028L13.5514 8.7515C13.0827 9.22013 13.0827 9.97992 13.5514 10.4486C14.02 10.9172 14.7798 10.9172 15.2484 10.4486L19.1999 6.49708V8.40002C19.1999 9.06277 19.7372 9.60002 20.3999 9.60002C21.0626 9.60002 21.5999 9.06277 21.5999 8.40002V3.60002C21.5999 3.43732 21.5675 3.28217 21.5088 3.14068Z" fill="black"/>
<path d="M2.3999 3.60002C2.3999 2.93728 2.93716 2.40002 3.5999 2.40002H6.18335C6.76996 2.40002 7.27059 2.82412 7.36702 3.40275L8.2542 8.72579C8.3408 9.24543 8.07837 9.76079 7.60718 9.99639L5.74941 10.9253C7.08897 14.254 9.74592 16.911 13.0747 18.2505L14.0035 16.3927C14.2391 15.9216 14.7545 15.6591 15.2741 15.7457L20.5972 16.6329C21.1758 16.7293 21.5999 17.23 21.5999 17.8166V20.4C21.5999 21.0628 21.0626 21.6 20.3999 21.6H17.9999C9.38426 21.6 2.3999 14.6157 2.3999 6.00002V3.60002Z" fill="black"/>
</svg>
