<svg width="24" height="24" viewBox="0 0 24 24" fill="none" xmlns="http://www.w3.org/2000/svg">
<path fill-rule="evenodd" clip-rule="evenodd" d="M12 2.40002C12.6628 2.40002 13.2 2.93728 13.2 3.60002V5.18758L17.9454 7.08572L19.8634 6.12671C20.4562 5.83032 21.177 6.07059 21.4734 6.66337C21.7697 7.25614 21.5295 7.97695 20.9367 8.27334L19.4569 9.01323L21.5427 15.5169C21.6873 15.9678 21.5532 16.4617 21.2003 16.7775C20.3519 17.5368 19.2286 18 18 18C16.7714 18 15.6482 17.5368 14.7997 16.7775C14.4469 16.4617 14.3127 15.9678 14.4574 15.5169L16.5157 9.09875L13.2 7.77246V19.2H15.6C16.2628 19.2 16.8 19.7373 16.8 20.4C16.8 21.0628 16.2628 21.6 15.6 21.6H8.40004C7.7373 21.6 7.20004 21.0628 7.20004 20.4C7.20004 19.7373 7.7373 19.2 8.40004 19.2H10.8V7.77246L7.48434 9.09875L9.54272 15.5169C9.68734 15.9678 9.55322 16.4617 9.20034 16.7775C8.35193 17.5368 7.22864 18 6.00004 18C4.77144 18 3.64816 17.5368 2.79975 16.7775C2.44687 16.4617 2.31274 15.9678 2.45737 15.5169L4.54317 9.01323L3.06339 8.27334C2.47061 7.97695 2.23034 7.25614 2.52673 6.66337C2.82312 6.07059 3.54393 5.83032 4.1367 6.12671L6.05471 7.08572L10.8 5.18758V3.60002C10.8 2.93728 11.3373 2.40002 12 2.40002ZM6.00004 12.3294L5.01816 15.391C5.31766 15.5254 5.64968 15.6 6.00004 15.6C6.35041 15.6 6.68243 15.5254 6.98193 15.391L6.00004 12.3294ZM18 12.3294L17.0182 15.391C17.3177 15.5254 17.6497 15.6 18 15.6C18.3504 15.6 18.6824 15.5254 18.9819 15.391L18 12.3294Z" fill="black"/>
</svg>
