<svg width="24" height="24" viewBox="0 0 24 24" fill="none" xmlns="http://www.w3.org/2000/svg">
<path fill-rule="evenodd" clip-rule="evenodd" d="M12 2.33337C9.49836 4.57242 6.20927 5.94974 2.59935 5.99871C2.46826 6.77964 2.40002 7.58188 2.40002 8.40006C2.40002 14.6699 6.4071 20.0038 12 21.9806C17.5929 20.0038 21.6 14.6699 21.6 8.40006C21.6 7.58188 21.5318 6.77964 21.4007 5.99871C17.7908 5.94974 14.5017 4.57242 12 2.33337ZM13.2 16.8C13.2 17.4628 12.6628 18 12 18C11.3373 18 10.8 17.4628 10.8 16.8C10.8 16.1373 11.3373 15.6 12 15.6C12.6628 15.6 13.2 16.1373 13.2 16.8ZM13.2 8.40002C13.2 7.73728 12.6628 7.20002 12 7.20002C11.3373 7.20002 10.8 7.73728 10.8 8.40002V12C10.8 12.6628 11.3373 13.2 12 13.2C12.6628 13.2 13.2 12.6628 13.2 12V8.40002Z" fill="black"/>
</svg>
