<svg width="24" height="24" viewBox="0 0 24 24" fill="none" xmlns="http://www.w3.org/2000/svg">
<path fill-rule="evenodd" clip-rule="evenodd" d="M21.2484 11.1515C21.7171 11.6201 21.7171 12.3799 21.2484 12.8486L12.8484 21.2486C12.3798 21.7172 11.62 21.7172 11.1514 21.2486L2.75137 12.8486C2.51702 12.6142 2.39986 12.307 2.3999 11.9999V6.00002C2.3999 4.0118 4.01168 2.40002 5.9999 2.40002H12.0002C12.3072 2.40011 12.6142 2.51727 12.8484 2.7515L21.2484 11.1515ZM5.9999 7.20002C6.66264 7.20002 7.1999 6.66277 7.1999 6.00002C7.1999 5.33728 6.66264 4.80002 5.9999 4.80002C5.33716 4.80002 4.7999 5.33728 4.7999 6.00002C4.7999 6.66277 5.33716 7.20002 5.9999 7.20002Z" fill="black"/>
</svg>
