<svg width="24" height="24" viewBox="0 0 24 24" fill="none" xmlns="http://www.w3.org/2000/svg">
<path fill-rule="evenodd" clip-rule="evenodd" d="M8.40004 2.40002C9.06278 2.40002 9.60004 2.93728 9.60004 3.60002V4.80002H10.4787C10.4928 4.79977 10.507 4.79977 10.5212 4.80002H13.2C13.8628 4.80002 14.4 5.33728 14.4 6.00002C14.4 6.66277 13.8628 7.20002 13.2 7.20002H11.4936C11.0596 9.225 10.3569 11.1499 9.42489 12.9356C9.77381 13.3606 10.1396 13.7713 10.5212 14.1666C10.9815 14.6434 10.9681 15.4031 10.4913 15.8634C10.0145 16.3237 9.25479 16.3103 8.7945 15.8335C8.56757 15.5984 8.34564 15.3584 8.12888 15.1138C7.06676 16.6921 5.81267 18.1301 4.40033 19.3942C3.9065 19.8361 3.14787 19.7941 2.70587 19.3003C2.26388 18.8065 2.30591 18.0478 2.79974 17.6058C4.25545 16.3029 5.52259 14.7946 6.55574 13.1267C5.88798 12.1799 5.29044 11.1799 4.77072 10.1341C4.47578 9.54057 4.71781 8.82035 5.3113 8.52541C5.90479 8.23047 6.62501 8.47249 6.91996 9.06599C7.20027 9.63005 7.50597 10.1794 7.83556 10.7124C8.33642 9.59129 8.73899 8.41685 9.0324 7.20002H3.60004C2.93729 7.20002 2.40004 6.66277 2.40004 6.00002C2.40004 5.33728 2.93729 4.80002 3.60004 4.80002H7.20004V3.60002C7.20004 2.93728 7.73729 2.40002 8.40004 2.40002ZM15.6 9.60002C16.0546 9.60002 16.4701 9.85683 16.6733 10.2634L20.2625 17.4418C20.2703 17.4565 20.2778 17.4715 20.285 17.4866L21.4733 19.8634C21.7697 20.4561 21.5295 21.177 20.9367 21.4733C20.3439 21.7697 19.6231 21.5295 19.3267 20.9367L18.4584 19.2H12.7417L11.8733 20.9367C11.577 21.5295 10.8562 21.7697 10.2634 21.4733C9.67061 21.177 9.43034 20.4561 9.72672 19.8634L10.9151 17.4866C10.9223 17.4715 10.9297 17.4565 10.9375 17.4418L14.5267 10.2634C14.73 9.85683 15.1455 9.60002 15.6 9.60002ZM13.9417 16.8H17.2584L15.6 13.4833L13.9417 16.8Z" fill="black"/>
</svg>
