<svg width="24" height="24" viewBox="0 0 24 24" fill="none" xmlns="http://www.w3.org/2000/svg">
<path fill-rule="evenodd" clip-rule="evenodd" d="M21.5999 12C21.5999 17.302 17.3018 21.6 11.9999 21.6C6.69797 21.6 2.3999 17.302 2.3999 12C2.3999 6.69809 6.69797 2.40002 11.9999 2.40002C17.3018 2.40002 21.5999 6.69809 21.5999 12ZM14.3999 8.40002C14.3999 9.72551 13.3254 10.8 11.9999 10.8C10.6744 10.8 9.5999 9.72551 9.5999 8.40002C9.5999 7.07454 10.6744 6.00002 11.9999 6.00002C13.3254 6.00002 14.3999 7.07454 14.3999 8.40002ZM11.9998 13.2C9.57877 13.2 7.49264 14.634 6.54438 16.6989C7.86474 18.2305 9.81908 19.2 11.9999 19.2C14.1806 19.2 16.1349 18.2305 17.4553 16.699C16.5071 14.634 14.4209 13.2 11.9998 13.2Z" fill="black"/>
</svg>
