<svg width="24" height="24" viewBox="0 0 24 24" fill="none" xmlns="http://www.w3.org/2000/svg">
<path fill-rule="evenodd" clip-rule="evenodd" d="M11.2592 3.6914C11.7076 3.87714 12 4.3147 12 4.80006V19.2001C12 19.6854 11.7076 20.123 11.2592 20.3087C10.8108 20.4945 10.2946 20.3918 9.95142 20.0486L5.5029 15.6001H2.39995C1.73721 15.6001 1.19995 15.0628 1.19995 14.4001V9.60006C1.19995 8.93732 1.73721 8.40006 2.39995 8.40006H5.50289L9.95142 3.95153C10.2946 3.60833 10.8108 3.50567 11.2592 3.6914Z" fill="black"/>
<path fill-rule="evenodd" clip-rule="evenodd" d="M17.5882 3.51468C18.0568 3.04605 18.8166 3.04605 19.2852 3.51468C21.4555 5.68494 22.7999 8.68658 22.7999 12C22.7999 15.3133 21.4555 18.315 19.2852 20.4852C18.8166 20.9539 18.0568 20.9539 17.5882 20.4852C17.1195 20.0166 17.1195 19.2568 17.5882 18.7882C19.3267 17.0496 20.3999 14.6513 20.3999 12C20.3999 9.34866 19.3267 6.95031 17.5882 5.21174C17.1195 4.74311 17.1195 3.98331 17.5882 3.51468ZM14.1941 6.90879C14.6627 6.44016 15.4225 6.44016 15.8911 6.90879C16.5222 7.53985 17.0371 8.28827 17.4003 9.11952C17.7864 10.0031 17.9999 10.9782 17.9999 12C17.9999 13.9879 17.1927 15.7895 15.8911 17.0911C15.4225 17.5598 14.6627 17.5598 14.1941 17.0911C13.7254 16.6225 13.7254 15.8627 14.1941 15.3941C15.064 14.5241 15.5999 13.3258 15.5999 12C15.5999 11.3151 15.4572 10.6667 15.2011 10.0804C14.9595 9.52752 14.6161 9.02795 14.1941 8.60585C13.7254 8.13722 13.7254 7.37742 14.1941 6.90879Z" fill="black"/>
</svg>
