<svg width="24" height="24" viewBox="0 0 24 24" fill="none" xmlns="http://www.w3.org/2000/svg">
<path fill-rule="evenodd" clip-rule="evenodd" d="M11.2592 3.69136C11.7076 3.87709 12 4.31466 12 4.80001V19.2C12 19.6854 11.7076 20.1229 11.2592 20.3087C10.8108 20.4944 10.2946 20.3917 9.95142 20.0485L5.5029 15.6H2.39995C1.73721 15.6 1.19995 15.0628 1.19995 14.4V9.60001C1.19995 8.93727 1.73721 8.40001 2.39995 8.40001H5.50289L9.95142 3.95148C10.2946 3.60828 10.8108 3.50562 11.2592 3.69136Z" fill="black"/>
<path fill-rule="evenodd" clip-rule="evenodd" d="M14.7514 8.75145C15.2201 8.28282 15.9799 8.28282 16.4485 8.75145L18 10.3029L19.5514 8.75145C20.0201 8.28282 20.7799 8.28282 21.2485 8.75145C21.7171 9.22008 21.7171 9.97988 21.2485 10.4485L19.697 12L21.2485 13.5514C21.7171 14.0201 21.7171 14.7799 21.2485 15.2485C20.7799 15.7171 20.0201 15.7171 19.5514 15.2485L18 13.697L16.4485 15.2485C15.9799 15.7171 15.2201 15.7171 14.7514 15.2485C14.2828 14.7799 14.2828 14.0201 14.7514 13.5514L16.3029 12L14.7514 10.4485C14.2828 9.97988 14.2828 9.22008 14.7514 8.75145Z" fill="black"/>
</svg>
